<svg width="351" height="80" fill="none" xmlns="http://www.w3.org/2000/svg"><path d="M92.32 44V10.4h13.248c3.904 0 7.008 1.024 9.312 3.072 2.304 2.048 3.456 4.8 3.456 8.256 0 3.616-1.28 6.432-3.84 8.448-2.528 2.016-5.728 3.024-9.6 3.024h-6.672V44H92.32zm5.904-16.128h6.864c2.208 0 3.968-.56 5.28-1.68 1.312-1.12 1.968-2.592 1.968-4.416 0-1.92-.656-3.392-1.968-4.416-1.28-1.056-3.04-1.584-5.28-1.584h-6.864v12.096zm37.103 16.704c-3.712 0-6.816-1.232-9.312-3.696-2.464-2.464-3.696-5.648-3.696-9.552 0-3.68 1.168-6.8 3.504-9.36 2.336-2.56 5.296-3.84 8.88-3.84 3.84 0 6.816 1.312 8.928 3.936 2.144 2.592 3.216 5.824 3.216 9.696 0 .704-.032 1.248-.096 1.632h-18.624c.32 2.016 1.136 3.6 2.448 4.752 1.312 1.12 2.928 1.68 4.848 1.68 2.496 0 4.784-1.008 6.864-3.024l3.408 3.024c-2.624 3.168-6.08 4.752-10.368 4.752zm-7.248-15.024h13.008c-.192-1.952-.848-3.552-1.968-4.8-1.12-1.248-2.608-1.872-4.464-1.872-1.76 0-3.232.624-4.416 1.872-1.184 1.216-1.904 2.816-2.16 4.8zM152.679 44V18.656h22.608V44h-5.808V23.648h-10.992V44h-5.808zm41.523.576c-3.712 0-6.816-1.232-9.312-3.696-2.464-2.464-3.696-5.648-3.696-9.552 0-3.68 1.168-6.8 3.504-9.36 2.336-2.56 5.296-3.84 8.88-3.84 3.84 0 6.816 1.312 8.928 3.936 2.144 2.592 3.216 5.824 3.216 9.696 0 .704-.032 1.248-.096 1.632h-18.624c.32 2.016 1.136 3.6 2.448 4.752 1.312 1.12 2.928 1.68 4.848 1.68 2.496 0 4.784-1.008 6.864-3.024l3.408 3.024c-2.624 3.168-6.08 4.752-10.368 4.752zm-7.248-15.024h13.008c-.192-1.952-.848-3.552-1.968-4.8-1.12-1.248-2.608-1.872-4.464-1.872-1.76 0-3.232.624-4.416 1.872-1.184 1.216-1.904 2.816-2.16 4.8zM216.978 44V23.648h-8.16v-4.992h22.176v4.992h-8.16V44h-5.856zm18.623 0V18.656h5.664v16.992a4025.003 4025.003 0 0112-16.992h5.472V44h-5.616V27.104L241.073 44h-5.472zm35.846 0V23.648h-8.16v-4.992h22.176v4.992h-8.16V44h-5.856zm30.671.576c-3.84 0-7.04-1.28-9.6-3.84-2.56-2.56-3.84-5.68-3.84-9.36 0-3.68 1.296-6.8 3.888-9.36 2.592-2.592 5.808-3.888 9.648-3.888s7.04 1.28 9.6 3.84c2.592 2.56 3.888 5.696 3.888 9.408 0 3.648-1.296 6.768-3.888 9.36-2.592 2.56-5.824 3.84-9.696 3.84zm.096-5.04c2.304 0 4.16-.784 5.568-2.352 1.408-1.568 2.112-3.504 2.112-5.808 0-2.272-.736-4.192-2.208-5.76-1.472-1.6-3.328-2.4-5.568-2.4-2.272 0-4.112.784-5.52 2.352-1.408 1.568-2.112 3.504-2.112 5.808 0 2.24.736 4.16 2.208 5.76 1.472 1.6 3.312 2.4 5.52 2.4zm19.403 12.144V18.656h5.808v4.224c2.24-3.168 5.104-4.752 8.592-4.752 3.2 0 5.968 1.2 8.304 3.6 2.336 2.368 3.504 5.584 3.504 9.648 0 4-1.168 7.2-3.504 9.6-2.336 2.368-5.104 3.552-8.304 3.552-3.488 0-6.352-1.488-8.592-4.464V51.68h-5.808zm13.056-12.192c2.048 0 3.76-.752 5.136-2.256 1.408-1.504 2.112-3.488 2.112-5.952 0-2.4-.704-4.352-2.112-5.856-1.408-1.504-3.12-2.256-5.136-2.256s-3.76.768-5.232 2.304c-1.44 1.536-2.16 3.504-2.16 5.904 0 2.368.72 4.32 2.16 5.856 1.472 1.504 3.216 2.256 5.232 2.256z" fill="#262727"/><path d="M125.08 68V54h10.84v14h-1.04V54.96h-8.76V68h-1.04zm23.04-1.34c-1 1.053-2.247 1.58-3.74 1.58-1.493 0-2.74-.52-3.74-1.56-.987-1.053-1.48-2.313-1.48-3.78 0-1.453.5-2.707 1.5-3.76 1.013-1.053 2.267-1.58 3.76-1.58 1.493 0 2.733.527 3.72 1.58 1 1.04 1.5 2.293 1.5 3.76 0 1.453-.507 2.707-1.52 3.76zm-3.7.66c1.133 0 2.107-.433 2.92-1.3.827-.867 1.24-1.907 1.24-3.12 0-1.227-.413-2.267-1.24-3.12-.813-.867-1.8-1.3-2.96-1.3-1.147 0-2.127.433-2.94 1.3-.813.853-1.22 1.893-1.22 3.12s.407 2.273 1.22 3.14c.813.853 1.807 1.28 2.98 1.28zm8.233.68V57.8h.88l4.16 5.86 4.16-5.86h.88V68h-.98v-8.5l-4.1 5.64-4.06-5.64V68h-.94zm22.069-1.34c-1 1.053-2.247 1.58-3.74 1.58-1.494 0-2.74-.52-3.74-1.56-.987-1.053-1.48-2.313-1.48-3.78 0-1.453.5-2.707 1.5-3.76 1.013-1.053 2.266-1.58 3.76-1.58 1.493 0 2.733.527 3.72 1.58 1 1.04 1.5 2.293 1.5 3.76 0 1.453-.507 2.707-1.52 3.76zm-3.7.66c1.133 0 2.106-.433 2.92-1.3.826-.867 1.24-1.907 1.24-3.12 0-1.227-.414-2.267-1.24-3.12-.814-.867-1.8-1.3-2.96-1.3-1.147 0-2.127.433-2.94 1.3-.814.853-1.22 1.893-1.22 3.12s.406 2.273 1.22 3.14c.813.853 1.806 1.28 2.98 1.28zm23.093 3.56V68h-14.86V57.8h.98v9.32h5.64V57.8h.98v9.32h5.64V57.8h.98v9.32h1.64l-.2 3.76h-.8zm3.46-2.88V57.8h.98v3.92h3.04c1.133 0 2.067.253 2.8.76.733.493 1.1 1.24 1.1 2.24 0 .987-.34 1.78-1.02 2.38-.68.6-1.58.9-2.7.9h-4.2zm.98-.88h3.06c.867 0 1.553-.207 2.06-.62.507-.413.76-.993.76-1.74 0-.68-.26-1.207-.78-1.58-.52-.387-1.227-.58-2.12-.58h-2.98v4.52zm20.102 1.12c-1.467 0-2.7-.52-3.7-1.56s-1.5-2.3-1.5-3.78c0-1.467.5-2.72 1.5-3.76 1.013-1.053 2.247-1.58 3.7-1.58 1.587 0 2.94.633 4.06 1.9l-.68.7c-1.093-1.12-2.227-1.68-3.4-1.68-1.133 0-2.107.433-2.92 1.3-.8.867-1.2 1.907-1.2 3.12 0 1.227.407 2.273 1.22 3.14.813.853 1.807 1.28 2.98 1.28 1.213 0 2.34-.58 3.38-1.74l.72.64c-1.187 1.347-2.573 2.02-4.16 2.02zm9.486-.24v-9.32h-3.82v-.88h8.62v.88h-3.82V68h-.98zm8.504 3.26c-.68 0-1.353-.147-2.02-.44l.34-.86c.52.253 1.1.38 1.74.38.533 0 .993-.18 1.38-.54.387-.36.767-.98 1.14-1.86l-4.9-10.14h1.14l4.24 9.12 3.68-9.12h1.08l-4.42 10.56c-.44 1.04-.933 1.78-1.48 2.22-.533.453-1.173.68-1.92.68zm8.938-.38v-3.76h1.34c1-1.64 1.5-4.027 1.5-7.16V57.8h6.84v9.32h1.64l-.2 3.76h-.8V68h-9.3l-.2 2.88h-.82zm2.42-3.76h6.28v-8.44h-4.92v1.84a18.1 18.1 0 01-.38 3.78c-.24 1.187-.567 2.127-.98 2.82zm15.667 1.12c-1.374 0-2.554-.5-3.54-1.5-.974-1-1.46-2.287-1.46-3.86 0-1.493.46-2.753 1.38-3.78.933-1.027 2.086-1.54 3.46-1.54 1.4 0 2.526.507 3.38 1.52.866 1.013 1.3 2.287 1.3 3.82 0 .16-.007.293-.02.4h-8.46c.093 1.227.52 2.207 1.28 2.94.773.72 1.68 1.08 2.72 1.08 1.333 0 2.5-.533 3.5-1.6l.68.6c-1.187 1.28-2.594 1.92-4.22 1.92zm-3.96-5.82h7.42c-.08-1.12-.434-2.06-1.06-2.82-.627-.76-1.494-1.14-2.6-1.14-1 0-1.854.38-2.56 1.14-.707.747-1.107 1.687-1.2 2.82zM271.051 68V57.8h.98v4.54h6.78V57.8h.98V68h-.98v-4.78h-6.78V68h-.98zm15.021 0v-9.32h-3.82v-.88h8.62v.88h-3.82V68h-.98zm10.365.24c-1.12 0-2.06-.28-2.82-.84-.747-.573-1.12-1.373-1.12-2.4 0-1.04.406-1.853 1.22-2.44.813-.587 1.893-.88 3.24-.88 1.146 0 2.273.147 3.38.44v-.44c0-1.013-.294-1.787-.88-2.32-.587-.533-1.414-.8-2.48-.8-1.067 0-2.134.273-3.2.82l-.36-.86c1.266-.587 2.473-.88 3.62-.88 1.4 0 2.473.373 3.22 1.12.693.693 1.04 1.653 1.04 2.88V68h-.96v-1.7c-.92 1.293-2.22 1.94-3.9 1.94zm.06-.92c1.066 0 1.973-.293 2.72-.88.76-.6 1.14-1.353 1.14-2.26v-1.16c-1.2-.307-2.354-.46-3.46-.46-1.067 0-1.894.22-2.48.66-.574.427-.86 1.013-.86 1.76 0 .733.266 1.307.8 1.72.533.413 1.246.62 2.14.62zm8.324.68V57.8h.88l4.16 5.86 4.16-5.86h.88V68h-.98v-8.5l-4.1 5.64-4.06-5.64V68h-.94z" fill="#262727" fill-opacity=".8"/><path stroke="#262727" stroke-opacity=".8" d="M92 61.5h22m212 0h22"/><path d="M5.072.175a6.939 6.939 0 00-4.91 4.852C.009 5.584 0 6.994 0 39.975s.009 34.392.162 34.949c.377 1.339 1.22 2.65 2.244 3.504.655.539 1.912 1.177 2.8 1.41.602.153 1.67.162 26.395.162h25.765l.727-.198c2.047-.548 3.573-1.788 4.48-3.665.718-1.483.682-.737.655-13.45l-.027-11.293-3.304 3.675-3.294 3.683v14.555H6.598V6.644h50.005l.018 5.651.027 5.651 3.303-3.692 3.313-3.693-.036-2.56c-.036-2.381-.054-2.615-.242-3.199-.629-1.922-1.877-3.35-3.645-4.177-1.446-.683.942-.63-27.803-.62-25.209 0-25.81.009-26.466.17zm70.572 4.717c-.314.117-.718.323-.898.467-.18.144-1.346 1.393-2.585 2.776l-2.272 2.507.207.189c.709.682 12.568 11.266 12.613 11.257.144-.01 4.48-4.968 4.713-5.382.503-.871.62-1.779.377-2.74-.287-1.087-.449-1.258-4.524-4.932-2.083-1.887-4.022-3.576-4.292-3.756-.269-.188-.7-.404-.951-.476-.691-.206-1.697-.17-2.388.09zm5.593 6.873c1.85 1.653 3.366 3.046 3.366 3.1 0 .08-.404.548-1.804 2.093l-.35.386-.557-.485c-1.715-1.51-7.03-6.289-7.101-6.388-.063-.09.233-.467 1.023-1.338L76.92 7.91l.475.422c.26.234 1.993 1.779 3.843 3.432zM67.205 13.66c-.844.935-1.535 1.744-1.535 1.788 0 .045 2.72 2.516 6.042 5.499 3.312 2.983 6.176 5.552 6.356 5.714l.332.287 1.535-1.707c.844-.943 1.535-1.752 1.535-1.788 0-.062-3.456-3.198-11.949-10.807l-.78-.701-1.536 1.716z" fill="#262727"/><path d="M14.615 15.673a3.298 3.298 0 00-2.343 2.965c-.099 1.554.826 2.91 2.307 3.369.557.18.862.18 17.021.18 15.855 0 16.474-.01 17.004-.171 1.355-.422 2.343-1.752 2.343-3.162 0-1.016-.62-2.184-1.472-2.75-.89-.602.359-.566-17.91-.557-13.44 0-16.645.027-16.95.126zm36.422 16.001c-7.281 8.122-13.377 14.932-13.538 15.13l-.297.35.342.314c.188.17 3.07 2.758 6.4 5.741l6.051 5.436.368-.423c1.544-1.725 26.42-29.486 26.582-29.666l.216-.224-6.374-5.723c-3.501-3.145-6.4-5.723-6.437-5.723-.036.009-6.033 6.657-13.313 14.788zm14.507-8.876c.189.143.52.449.736.673.323.36.377.477.377.8 0 .458-.098.611-.987 1.59-.718.79-1.015.997-1.41.997-.305-.009-.493-.116-1.095-.628-.736-.638-.898-1.114-.556-1.663.242-.404 1.49-1.76 1.732-1.895.36-.198.817-.153 1.203.126zM59.97 28.52c.467.188 1.284 1.006 1.4 1.383.081.26.072.395-.035.638-.144.341-15.406 17.402-15.72 17.582-.098.063-.359.108-.565.117-.332 0-.458-.063-.943-.476-.71-.593-.943-1.025-.808-1.483.08-.242 2.137-2.596 7.828-8.948 4.256-4.744 7.802-8.67 7.883-8.733.134-.09.359-.17.583-.206.036 0 .207.054.377.126zm-45.157 1.07a3.412 3.412 0 00-2.263 1.832c-.224.459-.25.611-.25 1.41 0 .837.017.935.286 1.447.36.692 1.123 1.393 1.805 1.671l.511.207 12.713.027 12.72.027 2.945-3.288c1.625-1.815 2.972-3.324 2.98-3.378.055-.135-30.89-.09-31.447.045zm-.135 13.853c-1.032.27-2.002 1.222-2.307 2.273-.431 1.492.332 3.208 1.742 3.926l.52.26 7.766.019 7.765.027 1.526-2.704c.844-1.492 1.68-2.992 1.868-3.325l.35-.62-9.373.01c-7.89 0-9.444.026-9.857.134zm18.736 13.18c-1.338 4.663-2.226 7.888-2.217 8.104.009.692.52 1.428 1.158 1.68.682.27.736.243 8.546-2.956 4.076-1.671 7.415-3.081 7.415-3.126.01-.072-12.577-11.455-12.658-11.455-.009 0-1.023 3.486-2.244 7.753zm7.173-.305c2.002 1.797 3.609 3.297 3.564 3.333-.054.045-3.582 1.51-5.557 2.309-.117.045-3.447-2.911-3.447-3.055 0-.252 1.66-5.903 1.732-5.876.036.01 1.706 1.492 3.708 3.289zM14.57 57.44a3.521 3.521 0 00-2.037 1.842c-.198.432-.234.62-.234 1.357 0 .7.036.934.207 1.294.44.961 1.23 1.635 2.217 1.895.449.117 1.356.135 6.033.135h5.503v-.224c0-.162 1.508-5.598 1.75-6.316.054-.162-12.963-.153-13.439.018z" fill="#262727"/></svg>