<svg width="26" height="26" fill="none" xmlns="http://www.w3.org/2000/svg"><path d="M13 0C5.82 0 0 5.82 0 13s5.82 13 13 13 13-5.82 13-13S20.18 0 13 0zm7.777 7.614c.005 0 .01.003.016.003l-7.254 7.254a.663.663 0 01-.912 0L5.37 7.614h15.407zm-15.913.485c0-.004.003-.007.003-.01l4.93 4.93-4.933 4.934V8.099zm.486 10.423c-.023 0-.042-.01-.063-.013l5-5 1.851 1.851c.252.252.588.39.945.39.358 0 .693-.139.945-.39l1.792-1.791 4.953 4.953H5.35zm15.912-.49L16.31 13.08l4.953-4.953v9.906z" fill="#FFB319"/></svg>