<svg width="446" height="446" fill="none" xmlns="http://www.w3.org/2000/svg"><path d="M54.68 273.755c1.516-.089 2.765-.892 3.835-1.963l.09-.089c1.873-2.051 3.21-5.084 4.549-7.403.356-.714.802-1.249 1.16-1.784 1.248-1.606 3.478-5.709 5.351-9.545l.268-.535c1.873-3.746 3.39-7.047 3.39-7.047s-.714-2.051-1.785-4.192c-.356-.625-.713-1.338-1.16-1.873-.802-1.249-1.783-2.23-2.854-2.498-3.21-.981-6.154 1.16-8.652 4.014-2.408 2.854-9.098 14.629-10.169 19.624 0 .089-.089.178-.089.268-1.07 6.154.981 13.38 6.066 13.023z" fill="#939597"/><path d="M54.68 273.755c1.605-.089 2.854-.892 3.924-2.052-3.478 1.695-5.62.625-6.868-.713-1.516-1.695-2.14-6.512-1.695-8.474.981-4.906 4.55-12.578 6.423-15.61 1.873-3.033 5.44-8.118 9.009-8.564a7.627 7.627 0 014.817.982c-.803-1.249-1.784-2.23-2.855-2.498-3.211-.981-6.155 1.16-8.652 4.014-2.498 2.854-9.366 15.164-10.169 19.892-1.07 6.154.981 13.38 6.066 13.023z" fill="#19253D"/><path opacity=".2" d="M54.68 273.755c1.516-.089 2.765-.892 3.835-1.963l.09-.089c1.873-2.051 3.21-5.084 4.549-7.403.356-.714.802-1.249 1.16-1.784 1.248-1.606 3.478-5.709 5.351-9.545l.268-.535c-.625-.714-1.427-.981-2.409-.714 0 0-2.497 2.32-4.816 7.047-2.587 5.174-3.925 10.08-8.742 10.169-4.817 0-3.925-3.122-4.638-7.671-.09-.625-.268-.803-.536-.714 0 .089-.089.179-.089.268-1.16 6.065.892 13.291 5.977 12.934z" fill="#19253D"/><path d="M134.692 317.195c.089 2.676 2.141 20.427 7.939 23.995 2.943 1.784 4.638 1.784 5.441.357.446-.803.714-1.963.714-3.479 0-1.07-.09-2.319-.268-3.657-.803-6.512-.892-21.587 4.817-24.798 0 0-1.071-7.76-3.747-12.577-.802-1.427-1.784-2.587-2.854-3.211 0 0-4.014 0-6.512.357-1.07.178-2.586.089-3.924.446-1.784.535-3.479 1.694-3.836 4.995-.803 5.976 2.141 14.896 2.23 17.572z" fill="#939597"/><path d="M134.692 317.195c.089 2.676 2.141 20.427 7.939 23.995 2.943 1.784 4.638 1.784 5.441.357-1.516.089-3.479-.446-5.352-1.963-2.498-2.14-5.709-14.361-5.441-18.286.178-3.924-1.427-11.06-2.855-16.591-1.07-4.192.892-8.295 1.963-10.079-1.784.535-3.479 1.694-3.836 4.995-.892 5.976 2.052 14.896 2.141 17.572z" fill="#19253D"/><path opacity=".2" d="M134.693 317.195c.089 2.676 2.14 20.427 7.938 23.995 2.944 1.784 4.639 1.784 5.442.357.446-.803.713-1.963.713-3.479-1.07.268-2.765-.178-4.727-1.249-3.39-1.873-4.104-12.309-3.568-19.178.446-6.868-3.568-12.22-1.249-16.591 2.319-4.282 10.169-3.3 10.169-3.3.089-.268.178-.446.267-.714-.803-1.427-1.784-2.587-2.854-3.211 0 0-4.014 0-6.512.357-1.07.178-2.587.089-3.925.446-1.784.535-3.478 1.694-3.835 4.995-.892 5.976 2.051 14.896 2.141 17.572z" fill="#19253D"/><path d="M135.138 129.251s-34.788.981-41.478 16.948c-6.6 16.056 14.272 61.905 25.6 67.435 11.24 5.53 27.206-1.249 32.558-6.868 5.352-5.709-3.568-72.698-16.68-77.515z" fill="#19253D"/><path d="M113.462 171.978s-.089 6.512-2.676 13.558c0 0-.802 4.728-1.962 10.526-1.427 6.868-2.854 11.864-4.906 16.056-1.695 3.479-2.944 6.868-3.836 9.544a10.98 10.98 0 01-.267.892c-.803 2.587-1.16 4.282-1.16 4.282l-7.671-2.587s-.446-8.028-.357-12.399c.179-5.441-.357-16.056 3.033-24.797.268-.714.535-1.338.892-1.873 0 0 .981-8.653 2.408-14.362.446-1.873.982-3.478 1.517-4.281 0-.089 11.328-1.338 14.985 5.441z" fill="#F9B587"/><path d="M99.458 185.893s-4.46.089-5.798 1.159c.268-.713.535-1.338.892-1.873 0-.089 3.39-.267 4.906.714zm14.004-13.915s-.089 6.511-2.676 13.558c0 0-.802 4.728-1.962 10.526.446-4.371.178-12.221.268-18.019.089-3.925-3.479-4.817-6.512-5.976-1.249-.446-3.836-.981-5.263-1.427-.089 0-.089 0-.178.089.446-1.873.981-3.479 1.516-4.282-.178 0 11.15-1.249 14.807 5.531z" fill="#F39568"/><path d="M97.406 220.859l7.315 5.174c.803.535 1.249 1.427 1.249 2.408l.089 7.047c0 .803-.625 1.516-1.517 1.516-.713 0-1.338-.446-1.516-1.159l-1.695-6.601-1.695-.624 1.071 3.924 1.338 3.568 3.3 4.193c.446.624.357 1.516-.267 1.962-.536.357-1.338.357-1.784-.178l-4.371-4.549-2.944-3.568 2.32 4.549 4.459 6.69c.268.446.268.981 0 1.427-.446.714-1.427.803-1.962.178L95.979 242l-2.765-4.282 2.408 7.582 2.141 4.817c.268.535 0 1.159-.446 1.427-.535.357-1.249.178-1.605-.357l-3.122-4.995-2.23-5.798 1.427 4.995.803 1.695c.178.357 0 .803-.357.981-.268.179-.714.089-.892-.267l-1.16-1.606L88.397 242l2.498-17.84c.089 0 1.07-2.409 6.511-3.301z" fill="#F9B587"/><path d="M99.726 222.465s-2.23-1.338-4.906-.981c0 0 2.854-1.071 5.173.089l-.267.892z" fill="#F39568"/><path d="M169.391 115.692c7.76-15.342 4.638-35.501 4.103-40.586a12.178 12.178 0 00-.535-1.784c-2.944-7.046-16.324-25.957-19.357-30.15-.178-.267-.356-.534-.446-.624-.089-.178-.178-.178-.178-.178l-9.366 4.37s6.333 6.602 8.742 14.897c2.497 8.296 8.384 19.089 8.384 19.089-2.586 9.634-2.765 22.122-2.765 22.122 4.46 10.525 11.418 12.844 11.418 12.844z" fill="#F9B587"/><path d="M169.391 115.692c7.76-15.342 4.638-35.501 4.103-40.586a12.178 12.178 0 00-.535-1.784c0 .268-.268 16.502-1.249 21.765-1.07 5.263-2.765 10.793-5.887 11.596-3.122.714-6.155-.981-7.85-3.835 4.46 10.525 11.418 12.844 11.418 12.844z" fill="#F39568"/><path d="M152.889 42.994c-1.249 1.338-6.69 4.996-7.493 5.352-.268.09-.624-.089-.981-.356-.357 0-2.765.089-4.103-.536-.714-.356-.714-1.338-.446-2.408-1.695-.446-4.996-3.211-4.906-5.709.089-2.765 3.032-2.854 3.032-2.854.09-3.122 3.122-2.587 3.122-2.587.179-1.338 2.676-1.873 2.676-1.873.268-1.16 1.874-1.338 2.855-.803.981.446 6.511 7.314 6.779 8.474.268 1.16-.535 3.3-.535 3.3z" fill="#F9B587"/><path d="M144.326 43.619c.356 1.605-.982 1.784-.982 1.784.268-.179.268-.892.179-1.427 0 0 0-.357-.179-.892-.178-.536-.446-1.16-1.07-1.428-1.16-.535-1.695-.178-1.695-.178l-2.319-3.3c1.16.802 2.765 2.586 2.765 2.586 2.141 0 2.855 1.517 3.122 2.409.446 0 .892-.179 1.071-.803.356-1.16-.357-2.23-.357-2.23l-3.211-4.46s4.37 4.282 4.46 5.887c.178 2.052-1.784 2.052-1.784 2.052zm4.46-4.549s.713.713 1.605.446c.892-.268 1.071-.803.892-1.338 0 0 .535.535 0 1.248-.624.982-2.051.714-2.497.625v-.981z" fill="#F39568"/><path d="M145.039 34.342s2.855 3.568 3.211 4.55c.357 1.07-.267 2.05-1.07 2.23-.803.178-1.16-.18-1.16-.18v1.071s2.944.535 2.944-2.319c0-1.427-3.925-5.352-3.925-5.352zm6.779 9.901s1.071-.178 1.784-1.16c-.178-.267-.356-.535-.446-.624-.089 0-.535.892-1.338 1.784zm-6.69 4.103s1.338-.089 2.141-.624c0 0-.713.981-1.695 1.16l-.446-.536zm15.61 32.202s4.104-.625 5.531-1.784c0 0-1.517 3.568-5.977 3.657l.446-1.873z" fill="#F39568"/><path d="M66.722 257.966c1.694 1.249.892 1.517 2.497 2.409 1.606.892 5.709 4.281 5.977 4.46 10.882 11.507 29.168 29.436 39.069 30.774 9.366 1.249 23.281-24.887 32.201-44.154.09-.179 3.747-5.531 9.099-3.925 5.53 1.606 25.689 20.605 35.055 25.422 0 0-12.488.624-16.591 5.887-4.103 5.263-15.431 10.258-17.483 11.061-2.052.803-3.122-.089-5.084 1.16-1.874 1.248-4.817 2.854-4.817 2.854-.089 5.798 2.051 10.882 6.333 15.967 0 0 1.784-.981 3.479-1.427 2.319-.714 7.314-2.052 8.206-3.658.892-1.605 31.666-8.117 31.666-8.117s23.638-4.638 25.422-15.877c1.873-11.24-46.116-61.548-46.116-61.548l-3.747-16.146-17.304 2.855-31.577 2.408s-5.441 14.54-6.958 27.652c-.981 8.742-6.779 29.615-6.779 29.615s-5.352-5.531-15.788-9.902c-2.676-1.159-5.442-2.408-8.028-3.568 0 0-3.925-1.962-5.352-3.924-1.338-1.874-2.23-1.16-3.658-1.606-1.516-.446-2.765-2.23-3.746-2.052-.981.179-1.249.714-1.249.714-2.497 2.408-3.657 3.925-5.352 9.812.09-.357-.981 1.606.625 2.854z" fill="#19253D"/><path d="M94.998 261.267l-.357.535c.714.446 1.517 1.07 2.32 1.606l.445-.536a56.54 56.54 0 00-2.408-1.605zm-4.371-2.409l-.357.625c.714.357 1.428.713 2.052 1.07l.535.268.357-.625-.535-.267a15.303 15.303 0 01-2.052-1.071zm-4.549-1.784c.892.536 1.695.982 2.498 1.428l.356-.625c-.802-.446-1.694-.892-2.497-1.427l-.357.624zm12.488 7.582c.714.536 1.427 1.16 2.23 1.874l.446-.536c-.803-.713-1.516-1.338-2.23-1.873l-.446.535zm7.85 5.977l-.446.535c.981.803 1.605 1.338 2.051 1.606.089.089.179.089.357.178l.268-.624c-.09 0-.179-.09-.268-.09-.446-.267-1.07-.802-1.962-1.605zm3.835 1.605l.357.625c.714-.357 1.427-1.16 2.141-2.141l-.535-.357c-.714.892-1.428 1.517-1.963 1.873zm-7.493-4.906l-.446.536c.625.535 1.249 1.07 1.784 1.605l.357.357.446-.535-.357-.357a26.3 26.3 0 01-1.784-1.606zm-20.872-12.844c.802.535 1.605 1.07 2.497 1.516l.357-.535c-.803-.535-1.695-.981-2.498-1.517l-.356.536zM70.29 247.53a3.884 3.884 0 00-.536.624c.536.09 1.25.179 2.141.357l.179-.624c-.714-.179-1.338-.268-1.784-.357zm3.746.981l-.268.625c.982.356 1.695.802 2.23 1.248.09 0 .09.09.179.179l.446-.535c-.09 0-.09-.09-.179-.09-.535-.624-1.338-1.07-2.408-1.427zm4.104 2.676l-.358.535c.714.536 1.517 1.071 2.409 1.695l.357-.535c-.892-.624-1.695-1.16-2.409-1.695zm43.975-20.605l.624.178a31.56 31.56 0 00.714-2.765l-.625-.178c-.267.892-.535 1.784-.713 2.765zm1.249-4.728l.624.179c.268-.981.535-1.873.803-2.765l-.625-.179c-.267.892-.535 1.784-.802 2.765zm-3.658 14.272l.625.179c.178-.892.446-1.873.624-2.855l-.535-.178c-.268.981-.446 1.962-.714 2.854zm1.16-4.816l.624.178c.268-.892.446-1.873.714-2.854l-.624-.179c-.268.981-.536 1.963-.714 2.855zm3.836-14.183l.624.178c.268-.981.535-1.873.803-2.765l-.625-.178c-.267.802-.535 1.784-.802 2.765zm-11.596 47.454l.624.268c.446-.803.803-1.695 1.249-2.676l-.625-.268c-.446 1.071-.802 1.963-1.248 2.676zm14.539-56.909l.625.178c.356-.981.624-1.962.981-2.765l-.625-.268c-.267.981-.624 1.873-.981 2.855zm-1.516 4.727l.624.179c.268-.982.625-1.874.892-2.766l-.624-.178c-.268.892-.535 1.784-.892 2.765zm-11.15 47.722l.624.179c.268-.892.625-1.784.892-2.766l-.624-.178c-.268.981-.625 1.873-.892 2.765zm3.746-19.178l.625.089c.178-.892.356-1.873.535-2.854l-.625-.178a90.705 90.705 0 01-.535 2.943zm-2.408 14.54l.624.178c.268-.892.446-1.873.625-2.854l-.625-.089c-.178.892-.357 1.784-.624 2.765zm.981-4.817l.624.089c.179-.981.268-1.962.446-2.854l-.624-.089c-.089.981-.268 1.873-.446 2.854zm.714-4.817l.624.089c.089-.892.268-1.784.446-2.854l-.624-.089c-.268.981-.357 1.962-.446 2.854zm40.853-5.619c-.981 0-1.962.089-2.943.446l.178.624c.892-.268 1.784-.446 2.765-.357v-.713zm4.46 2.051l.357-.624c-.268-.179-.535-.268-.714-.357-.624-.357-1.338-.535-2.051-.714l-.179.625c.625.178 1.249.357 1.874.713.178.09.446.179.713.357zm1.695 42.727l.268.624c.892-.446 1.784-.892 2.586-1.338l-.267-.624c-.803.446-1.695.892-2.587 1.338zm4.371-2.23l.357.624c.892-.535 1.784-.981 2.497-1.427l-.357-.535c-.713.357-1.605.803-2.497 1.338zm4.192-2.498l.357.536c.981-.625 1.784-1.16 2.408-1.695l-.446-.535c-.535.535-1.338 1.07-2.319 1.694zm-25.243 13.202a20.091 20.091 0 011.784-1.16l-.357-.535c-.535.268-.981.625-1.517.981 0 .268 0 .446.09.714zm3.122-2.765l.356.624a19.751 19.751 0 012.587-1.159l-.178-.625c-.803.268-1.784.625-2.765 1.16zm17.394-44.422c.713.535 1.427 1.16 2.23 1.873l.446-.535c-.803-.713-1.517-1.338-2.23-1.873l-.446.535zM156.1 293.022l.268.624a27.776 27.776 0 002.676-1.07l-.268-.624a27.83 27.83 0 01-2.676 1.07zm4.549-1.873l.268.624c.892-.357 1.695-.803 2.676-1.249l-.357-.624c-.892.446-1.784.892-2.587 1.249zm-7.136-44.6c.179-.179.446-.268.714-.446l-.357-.625c-.446.268-.892.536-1.249.803.357.089.625.179.892.268zm11.864.267l-.357.536c.714.446 1.427 1.07 2.319 1.694l.446-.535c-.981-.624-1.695-1.249-2.408-1.695zm28.811 29.704c-.356.268-1.07.535-2.319.892l.179.624c1.338-.356 2.14-.713 2.586-.981.09-.089.179-.089.268-.178l-.446-.535c-.089 0-.178.089-.268.178zm-6.511-10.436l-.446.535a58.647 58.647 0 002.319 1.784l.357-.535c-.625-.536-1.338-1.071-2.23-1.784zm4.014 2.676l-.268.624c.981.446 1.695.892 2.409 1.427l.446-.535c-.803-.446-1.606-.981-2.587-1.516zm3.925 3.211l-.536.357c.268.356.357.802.446 1.159.09.446.09.892-.089 1.338l.625.179c.178-.536.178-1.071.089-1.695a4.214 4.214 0 00-.535-1.338zm-7.136 6.155c-.446.089-.892.178-1.428.356l.179.625c.446-.089.892-.268 1.427-.357.535-.089.981-.268 1.427-.357l-.178-.624c-.446.178-.892.267-1.427.357zm-6.155 1.605l.178.625a36.488 36.488 0 012.765-.803l-.178-.625c-.981.357-1.873.536-2.765.803zm-4.639 1.784l.268.625c.714-.357 1.606-.714 2.587-1.071l-.268-.624c-.892.357-1.784.713-2.587 1.07zm.446-23.816c-.535-.446-.981-.892-1.516-1.427l-.446.535c.535.446.981.892 1.516 1.427l.625.535.446-.535-.625-.535zm1.695 2.408c.714.625 1.427 1.338 2.141 1.963l.446-.536c-.714-.624-1.427-1.248-2.141-1.962l-.446.535zm6.333 4.639c-.713-.536-1.427-1.16-2.23-1.874l-.446.536c.803.713 1.517 1.338 2.23 1.873l.446-.535zm-10.971-9.812c-.714-.625-1.427-1.338-2.141-1.963l-.446.535c.714.625 1.427 1.249 2.141 1.963l.446-.535z" fill="#939597"/><path d="M178.4 218.005s-31.666 10.347-48.792 5.709c-1.249-.357-11.686-2.498-11.686-2.498s5.888-22.3 4.193-37.107c-.446-3.925-1.338-11.685-4.103-18.732-.982-2.498-1.963-5.085-3.033-7.582-2.944-7.404-5.709-14.094-6.958-17.037 2.587-1.784 4.639-2.23 5.085-2.32h.089c2.765-.446 6.422-1.248 10.258-2.319 4.906-1.516 10.258-3.657 14.896-6.868l4.282-2.409 4.46-2.497s5.53 1.962 11.239 10.169c-1.516 1.784-3.033 3.389-4.817 4.816 2.498 1.606 4.639 2.32 4.639 2.32 1.07-.625 2.14-1.338 3.122-2.23 3.657 6.779 6.957 16.323 8.563 29.971 1.427 12.399 4.103 26.76 5.976 36.661a662.047 662.047 0 012.587 11.953z" fill="#fff"/><path d="M132.016 141.382c-5.887-.535-7.225-3.3-8.474-5.174 4.906-1.516 10.258-3.657 14.896-6.868l2.766-1.606c.802 0 2.765 1.517 2.765 4.46 0 4.014-4.103 9.812-11.953 9.188z" fill="#19253D"/><path opacity=".2" d="M150.837 149.856l10.258-4.638s8.028 12.042 1.517 14.361c-7.047 2.587-11.775-9.723-11.775-9.723z" fill="#19253D"/><path d="M139.776 100.082s4.282-3.3 2.587-9.812c0 0-1.427 2.498-2.765 2.766 0 0 3.3-9.01-6.868-14.094 0 0 1.159 4.995 0 6.6 0 0-2.676-5.797-6.69-6.957 0 0 .624 10.08-5.62 12.131-4.46 1.428-10.258 6.601-11.864 15.164 0 0-2.586-.713-3.568.268 0 0 3.301.535 3.747 2.676 0 0-1.427-.714-2.409.178 0 0 2.32.446 2.676 2.32.357 1.873 9.277 15.877 14.629 18.196 5.352 2.409 16.145-29.436 16.145-29.436z" fill="#19253D"/><path d="M125.95 131.659l.714 4.103c.178 1.071.981 1.874 1.962 2.141 8.831 2.319 12.756-3.211 13.202-5.352-1.16-.446-21.497-8.652-24.798-16.502 0 .089 2.141 10.615 8.92 15.61z" fill="#F9B587"/><path d="M142.363 108.735c.714.981 1.249 2.141 1.606 3.3.267.981.446 2.052.446 3.211v7.226c0 2.676-1.695 5.084-4.193 5.976-2.943.981-6.957 1.873-11.15.892-7.849-1.695-11.596-11.239-11.596-11.239s-3.3-9.901 3.301-16.681c4.549-4.727 10.704-5.62 14.004-5.798 1.427-.089 2.765.714 3.479 1.963l2.498 4.549.535 1.07c.535 1.249.803 2.587.892 4.014l.178 1.517z" fill="#F9B587"/><path d="M132.997 104.096s-6.244-2.676-7.76 2.587l.981.803s2.052-3.925 7.047-1.962l-.268-1.428z" fill="#19253D"/><path d="M142.363 108.735c.714.981 1.249 2.141 1.606 3.3-1.249-.267-3.39-.089-7.136 1.963 0 0 1.427-2.498 3.479-3.39.535-.268.713-.981.356-1.427l-2.586-3.122s.178-.892.892-1.517c.446-.356 1.516-.981 2.319-1.427.535 1.249.803 2.587.892 4.014l.178 1.606z" fill="#F39568"/><path d="M140.758 102.134c-1.517.714-2.498 1.606-2.498 1.606l.357 1.248c.981-.802 1.873-1.248 2.676-1.605.446-.179.624-.625.446-.981-.179-.268-.535-.446-.981-.268z" fill="#19253D"/><path d="M142.72 115.068l-11.15 3.211s3.479 5.352 9.188 2.944c4.46-1.963 1.962-6.155 1.962-6.155z" fill="#fff"/><path d="M139.598 128.448s-6.958 1.784-14.183-6.066c0 0-.357 4.104 3.568 8.207 3.836 4.103 12.934 2.051 12.934 2.051l-2.319-4.192z" fill="#F39568"/><path d="M119.617 115.425s-3.568-3.033-5.798-.179c-2.23 2.855 2.855 11.061 6.423 7.672 3.746-3.301-.625-7.493-.625-7.493z" fill="#F9B587"/><path d="M132.997 108.021s-1.338-1.695-3.122-.981c-2.497.981-2.141 3.3-2.141 3.3s1.16-4.281 5.263-2.319zm6.155-.803s.892-2.765 2.944-.624c0 0-1.784-1.16-2.944.624zm-20.873-2.943s2.676 3.3.535 6.69l2.32 5.263-2.32.624-1.962-2.944-1.516-7.492c-.09 0 1.784-3.39 2.943-2.141z" fill="#19253D"/><path d="M175.546 109.538s-.268 1.427-.892 3.657c-1.874 7.314-7.047 23.37-16.324 28.544 0 0-2.141-.714-4.638-2.319-3.925-2.498-8.831-6.869-8.385-13.559 0 0 7.939-13.201 11.328-22.567a38.1 38.1 0 01.803-2.409l14.807 7.136 3.301 1.517z" fill="#fff"/><path d="M175.546 109.538s-.268 1.427-.892 3.657c-3.479-2.676-14.54-8.207-18.019-9.901a38.1 38.1 0 01.803-2.409l14.807 7.136 3.301 1.517z" fill="#19253D"/><path opacity=".2" d="M175.546 109.448s-4.193 21.052-14.094 29.972c-.981-1.784-1.962-3.479-3.033-4.906 7.582-9.01 12.221-21.676 13.826-26.671l3.301 1.605z" fill="#19253D"/><path d="M119.617 152.443c-.267 1.784-.624 2.943-.624 2.943l-.892 10.08-.981 9.634-.268 2.765c-1.695 2.408-7.404 2.587-12.756 2.141-5.62-.446-10.971-1.517-10.971-1.517s.178-1.07.446-2.943c.803-4.46 2.587-13.559 5.976-22.746 2.409-6.512 5.798-10.08 8.653-12.042 2.586-1.784 4.638-2.23 5.084-2.32h.089c7.225.803 6.958 9.366 6.244 14.005z" fill="#fff"/><path d="M117.03 175.1l-.267 2.765c-1.695 2.408-7.404 2.587-12.756 2.141-5.62-.446-10.971-1.517-10.971-1.517s.178-1.07.446-2.943c2.408.624 8.028 1.427 13.023 1.516 5.619.178 8.831-1.16 10.525-1.962zm22.657-46.474s11.596-1.784 18.911 4.817c7.314 6.512 14.628 20.249 10.168 28.544l1.784 11.953s12.132-19-.892-37.464c-8.741-12.399-19.891-12.666-25.6-11.864-.624 1.784-1.962 3.122-3.836 3.747l-.535.267zm-27.919 10.348s3.3-7.582 9.455-6.69c6.155.892 24.708 26.046 20.783 44.51-3.924 18.465-19.891 20.427-19.891 20.427s-3.122-4.727.357-9.098c0 0 10.525-2.587 13.38-14.629 2.854-12.042-11.507-36.483-16.681-37.196-1.873-.268-3.3 1.784-3.3 1.784s-2.319.624-4.103.892z" fill="#19253D"/><path opacity=".2" d="M178.4 218.005s-31.666 10.347-48.792 5.709c-1.249-.357-11.686-2.409-11.686-2.409s5.888-22.3 4.193-37.107c-.446-3.925-1.338-11.685-4.103-18.732l-1.249 12.488c-1.695 2.319-7.404 2.587-12.756 2.141 0 0 8.653-4.549 9.545-14.897.267-3.032.802-5.441 1.516-7.314 1.695-4.638 3.925-6.333 3.925-6.333s.178.357.535.981c1.695 2.854 6.512 11.685 7.136 18.821.714 8.653 3.39 27.028 16.77 37.91 7.403 6.066 32.201 5.085 32.558-2.854v-.268c1.427 7.047 2.408 11.864 2.408 11.864z" fill="#19253D"/><path d="M362.866 352.34s5.441-.981 5.084-8.206c-.357-7.226-2.765-17.127-7.493-20.07-4.817-2.855-8.295 1.248-8.295 1.248l10.704 27.028z" fill="#939597"/><path d="M341.458 324.153c.178 2.408 2.408 5.887 7.225 8.474 4.817 2.587 7.403 11.685 9.544 15.699.981 1.873 2.052 2.854 2.944 3.39 1.07.624 1.784.624 1.784.624v-1.695c0-2.587-.089-7.849-1.071-13.38-1.338-7.849-5.976-10.615-5.976-10.615-.892-1.427-2.676-2.497-4.728-3.122-3.389-1.07-7.492-1.07-9.098-.267-.446.267-.714.535-.624.892z" fill="#939597"/><path d="M360.011 336.016c1.16 4.817 1.695 12.756 1.071 15.7 1.07.624 1.784.624 1.784.624s.356-7.225-.982-15.075c-1.338-7.849-5.976-10.615-5.976-10.615-.892-1.427-2.676-2.497-4.728-3.122 2.766 2.855 7.939 8.385 8.831 12.488z" fill="#19253D"/><path opacity=".2" d="M341.458 324.153c.178 2.408 2.408 5.887 7.225 8.474 4.817 2.587 7.403 11.685 9.544 15.699.981 1.873 2.052 2.854 2.944 3.39 1.07.624 1.784.624 1.784.624v-1.695c-.089-.089-.268-.178-.357-.178-1.606-.446-3.746-.981-5.084-6.958-1.249-5.976-3.479-10.258-7.136-12.131-3.39-1.695-7.582-7.136-8.296-8.117-.446.267-.714.535-.624.892z" fill="#19253D"/><path d="M302.656 173.583s37.107-5.53 47.186 10.169c10.08 15.788-3.478 68.416-14.361 76.444-10.882 7.939-29.079 3.836-35.858-1.159-6.779-5.085-9.901-77.872 3.033-85.454z" fill="#19253D"/><path d="M345.65 239.145s4.728-1.159 6.422-6.69l-5.619-2.497c0 .089-2.141 5.708-.803 9.187z" fill="#939597"/><path d="M345.65 229.422c7.671 11.686 25.065 14.718 25.065 14.718 3.568-1.07 8.385-6.065 13.113-12.131 9.009-11.596 17.84-27.117 17.84-27.117l-7.226-2.408s-12.666 14.004-18.107 17.037c-5.441 3.033-7.047 5.887-7.047 5.887-.535-.624-1.249-1.248-1.962-1.784-3.836-3.211-9.188-5.708-9.188-5.708-6.155-1.695-12.488 11.506-12.488 11.506z" fill="#F9B587"/><path d="M345.65 229.422c7.671 11.686 25.065 14.718 25.065 14.718 3.568-1.07 8.385-6.065 13.113-12.131 0 0-8.474 9.009-13.826 9.723-5.352.714-15.61-6.601-16.592-9.366-1.07-2.765.446-9.901 4.728-14.45-6.155-1.695-12.488 11.506-12.488 11.506z" fill="#F39568"/><path d="M271.882 260.107s-.446 23.638 2.943 38.624c3.301 14.896 17.483-24.441 17.483-24.441s-12.755-11.15-20.426-14.183z" fill="#19253D"/><path d="M321.477 274.022s-.268 13.916-9.455 23.817c-9.099 9.812-13.024 21.408-13.024 21.408s13.648-6.244 22.479-4.549c0 0 4.638.267 6.333-1.695 1.695-1.963 2.141-4.193 4.817-3.479 2.676.714 6.333-.089 7.314-.268.981-.089 7.047 9.634 5.887 15.967 0 0-4.816 1.338-5.441 2.141-.624.803-4.103 4.46-6.244 4.371-2.141-.089-7.939 3.211-7.939 3.211s-29.703 11.328-32.468 13.202c-4.55 3.211-26.225 6.69-28.098-5.442-1.963-12.131 16.948-69.843 19.624-76.087 2.586-6.244 33.004-.179 36.215 7.403z" fill="#19253D"/><path d="M294.449 313.984l.803.268c.268-.803.714-1.695 1.07-2.676l-.802-.357a28.742 28.742 0 00-1.071 2.765zm43.887-1.16l.178.892c.892-.178 1.873-.356 2.854-.535l-.178-.892c-.981.089-1.962.357-2.854.535zm-44.154 8.028l-.892.09v.089c.178 1.249.535 2.141 1.159 2.765l.625-.624c-.446-.446-.714-1.16-.892-2.32zm7.046 2.676l.268.892c.892-.267 1.873-.535 2.765-.892l-.267-.892c-.892.268-1.874.625-2.766.892zm-.713-20.783c-.535.803-1.071 1.695-1.606 2.408l.714.446c.446-.803.981-1.605 1.605-2.408l-.713-.446zm-1.873 4.638l-.803-.446a37.346 37.346 0 00-1.427 2.587l.802.446a36.95 36.95 0 011.428-2.587zm18.464-34.342l-.892-.178c-.178.981-.357 1.873-.535 2.854l.892.179c.178-.892.446-1.874.535-2.855zm-13.023 26.225l-.714-.535c-.624.892-1.159 1.605-1.695 2.408l.714.535c.535-.802 1.07-1.605 1.695-2.408zm2.141-4.549c-.536.803-1.16 1.516-1.695 2.319l.713.535c.536-.803 1.16-1.605 1.695-2.319l-.713-.535zm-11.596 21.497l-.892-.268a20.835 20.835 0 00-.536 2.944l.892.089c.179-.892.268-1.784.536-2.765zm1.962 7.85l-.178.892c.356.089.713.089 1.07.089.535 0 1.249-.089 1.962-.179l-.178-.892c-1.07.179-1.962.268-2.676.09zm23.906-3.836l.178.892c.981-.178 1.962-.357 2.854-.624l-.267-.892c-.892.267-1.873.446-2.765.624zm4.638-1.249l.268.803c.981-.357 1.873-.714 2.765-1.16l-.357-.802c-.803.446-1.695.892-2.676 1.159zm-19.267 3.033l.267.892c1.071-.357 1.963-.624 2.766-.803l-.179-.892c-.803.179-1.695.446-2.854.803zm9.812-1.427v.892c.981 0 1.962-.089 2.943-.179l-.089-.892c-.981.179-1.962.179-2.854.179zm17.929-6.423l.357.803c.803-.267 1.695-.624 2.676-.892l-.268-.892c-1.07.357-1.962.714-2.765.981zm-2.854 1.695c-.357.357-.803.714-1.338 1.16l.535.713c.624-.446 1.07-.802 1.516-1.248.179-.179.446-.357.714-.625l-.446-.713c-.446.178-.714.446-.981.713zm-15.521-38.177c-.268.892-.535 1.873-.803 2.765l.803.267c.267-.892.624-1.873.892-2.765l-.892-.267zm-7.85 15.431l.714.535c.624-.802 1.159-1.605 1.695-2.319l-.714-.535c-.535.714-1.07 1.516-1.695 2.319zm5.085-5.976l-.803-.446c-.446.892-.981 1.695-1.427 2.497l.713.446a37.165 37.165 0 001.517-2.497zm.089-2.23l.803.357c.446-.892.802-1.784 1.159-2.676l-.803-.357c-.356.981-.713 1.873-1.159 2.676zm-1.873 35.858l.178.892c1.07-.178 1.962-.267 2.765-.178l.089-.892c-.981-.089-1.873 0-3.032.178z" fill="#939597"/><path d="M270.811 101.866l3.657 15.432v.089s.268 2.855.982 6.601c.892 4.192 2.408 9.544 5.084 13.38.446.624.803 1.16 1.249 1.606 0 0 2.319 8.83 4.727 16.412 1.428 4.46 2.944 8.564 4.104 10.169 0 0 14.628-2.765 11.15-11.507 0 0-4.996-11.417-8.92-19.802a179.334 179.334 0 01-2.141-4.46l-4.46-10.258-2.141-4.906-6.512-14.896-6.779 2.14z" fill="#F9B587"/><path d="M286.6 155.476c1.427 4.46 2.943 8.563 4.103 10.168 0 0 14.629-2.765 11.15-11.506 0 0-4.995-11.418-8.92-19.803.089.357 3.568 12.399 2.497 15.699-1.07 3.479-4.103 6.69-8.83 5.442z" fill="#F39568"/><path d="M286.689 166.269c.178 6.333 2.854 13.915 5.887 18.464 1.873 1.963 4.103 1.963 6.422.892 5.977-2.587 12.221-11.596 12.221-11.596l-8.563-18.107-.803-1.784c-4.817 1.338-9.723 4.727-12.577 7.046a1253.308 1253.308 0 01-2.498 2.052c-.089.981-.178 1.962-.089 3.033z" fill="#fff"/><path opacity=".2" d="M286.689 166.269c.178 6.333 2.854 13.915 5.887 18.464 1.873 1.963 4.103 1.963 6.422.892-5.173-5.084-8.652-19.356-9.812-24.441-1.516 1.249-2.497 2.052-2.497 2.052 0 .981-.089 1.962 0 3.033z" fill="#19253D"/><path d="M286.689 166.269c4.014-4.014 13.201-8.831 16.056-10.347l-.803-1.784c-7.493 2.051-15.075 9.098-15.075 9.098-.178.981-.267 1.962-.178 3.033z" fill="#19253D"/><path d="M267.154 263.14c11.15 14.45 57.802 15.342 57.802 15.342s-1.695-19.088 0-28.633c1.784-10.436 3.389-25.689 3.389-25.689 4.282 3.122 10.793 8.92 14.451 12.309a75.176 75.176 0 002.854 2.587c1.16-5.352 2.765-9.455 4.46-12.488 3.836-6.958 8.028-8.742 8.028-8.742l-1.962-2.586-14.183-18.465-15.164-12.577-2.587-2.141-11.953-7.671-4.906-3.122s-12.666 5.263-16.234 10.793c-3.568 5.531-11.864 31.042-14.451 43.53-3.3 16.234-7.225 29.971-8.83 35.234-.446 1.605-.714 2.319-.714 2.319z" fill="#fff"/><path opacity=".2" d="M267.154 263.14c11.15 14.45 57.802 15.342 57.802 15.342s-1.695-19.088 0-28.633c1.784-10.436 3.389-25.689 3.389-25.689 4.282 3.122 10.793 8.92 14.451 12.309a75.176 75.176 0 002.854 2.587c1.16-5.352 2.765-9.455 4.46-12.488 0 0-16.324-8.831-23.37-16.591 0 0-8.742 24.084-11.686 36.215-3.835 15.699-17.037 22.122-29.079 21.319-12.042-.803-18.107-6.69-18.107-6.69-.446 1.605-.714 2.319-.714 2.319z" fill="#19253D"/><path d="M319.425 187.142c2.765-.536 4.193-2.052 6.244-3.747l-1.427-1.159-12.756-10.169c-1.694 1.07-3.835 2.141-4.103 6.422-.446 6.423 6.423 9.723 12.042 8.653zm23.46 49.416c1.695 1.606 2.854 2.587 2.854 2.587 3.836-17.572 12.488-21.229 12.488-21.229l-1.962-2.587c-3.657 2.587-11.061 9.187-13.38 21.229zm-9.099-69.219s.268 6.958-7.76 8.385c0 0 2.052-9.188 7.76-8.385z" fill="#19253D"/><path d="M320.674 152.354c4.817 7.76 12.666 14.361 12.666 14.361s16.77-8.117 11.24-21.319c-1.517-3.568-3.301-6.155-5.263-8.028-8.385-8.028-19.535-2.854-19.535-2.854-4.817 5.084-2.854 11.863.892 17.84z" fill="#fff"/><path opacity=".2" d="M320.674 152.354c4.817 7.76 12.666 14.361 12.666 14.361s16.77-8.117 11.24-21.319c-1.517-3.568-3.301-6.155-5.263-8.028.089.178 4.727 7.582 0 12.488-4.728 4.906-13.023 6.69-18.643 2.498z" fill="#19253D"/><path d="M333.251 148.875s-4.371-22.657-18.375-21.587c-13.112.982-2.854 18.286-2.854 18.286s18.91 5.352 21.229 3.301z" fill="#19253D"/><path d="M315.946 140.847s-5.976 1.159-5.441 6.69c0 0 5.085-3.033 5.441-6.69z" fill="#19253D"/><path d="M326.472 174.297l-2.23 7.849a2.902 2.902 0 01-2.141 2.141c-9.187 2.052-13.558-4.727-12.666-7.047 1.159-.446 21.675-6.957 25.333-14.807.089 0-1.249 6.958-8.296 11.864z" fill="#F9B587"/><path d="M310.505 173.941c2.944 1.159 7.047 2.141 11.418 1.427 8.117-1.427 12.399-11.061 12.399-11.061s1.338-6.511-.446-12.577c-.536-1.606-1.249-3.211-2.32-4.638-3.835-5.174-10.168-6.066-13.647-6.423-1.784-.178-3.39.625-4.371 2.141l-1.516 2.498-.982 1.694c-.178.357-.446.714-.624 1.071-.624 1.249-.981 2.676-1.07 4.014l-.09 1.605a9.537 9.537 0 00-1.784 3.39c-.356 1.07-.535 2.141-.624 3.211l-.357 7.404c-.178 2.765 1.517 5.263 4.014 6.244z" fill="#F9B587"/><path d="M318.979 149.41s6.512-2.498 7.939 2.944l-.981.802s-1.963-4.192-7.136-2.319l.178-1.427z" fill="#19253D"/><path d="M309.167 153.781a9.517 9.517 0 00-1.784 3.389c1.249-.267 3.479 0 7.225 2.32 0 0-1.338-2.676-3.478-3.658-.536-.267-.714-.981-.268-1.427l2.765-3.122s-.089-.892-.892-1.605c-.446-.446-1.516-1.071-2.319-1.517-.624 1.249-.981 2.676-1.07 4.014l-.179 1.606z" fill="#F39568"/><path d="M311.04 147.091a11.447 11.447 0 012.498 1.784l-.357 1.249c-.892-.892-1.873-1.428-2.676-1.695-.446-.179-.624-.625-.446-.981.179-.446.625-.625.981-.357z" fill="#19253D"/><path d="M308.543 160.203l11.328 3.747s-3.835 5.352-9.455 2.676c-4.549-2.141-1.873-6.423-1.873-6.423z" fill="#fff"/><path d="M311.219 174.029s7.047 2.141 14.807-5.709c0 0 .178 4.193-3.925 8.296-3.033 2.944-8.652 2.498-11.596 1.962-.892-.178-1.338-1.07-.892-1.873l1.606-2.676z" fill="#F39568"/><path d="M332.181 161.541s3.746-3.033 5.976.089c2.23 3.033-3.3 11.24-6.957 7.672-3.568-3.658.981-7.761.981-7.761z" fill="#F9B587"/><path d="M318.801 153.424s1.516-1.695 3.211-.892c2.498 1.07 2.052 3.479 2.052 3.479s-.982-4.46-5.263-2.587zm-6.244-1.16s-.803-2.854-2.944-.802c-.089.089 1.784-.982 2.944.802z" fill="#19253D"/><path d="M311.932 145.218c0 .089-.178.356-.178.446 0 0 3.657-3.033 10.08-.536 6.422 2.498 9.544 8.564 9.544 8.564l2.408-2.052c-.535-1.606-1.248-3.211-2.319-4.638-3.835-5.174-10.169-6.066-13.647-6.423-1.784-.178-3.39.625-4.371 2.141l-1.517 2.498z" fill="#F39568"/><path d="M330.218 161.987l2.141.981 3.122-2.765c.446-2.676-1.695-9.723-2.141-11.328-.267-.268-.713-.535-1.07-.803 0 0-2.141 7.314.178 10.08l-2.23 3.835z" fill="#19253D"/><path d="M274.379 117.298v.089s.268 2.855.981 6.601l10.883-4.46-2.141-4.906-9.723 2.676z" fill="#F39568"/><path opacity=".2" d="M290.346 191.78l8.563 7.671s-3.033 12.042-9.633 9.366c-7.939-3.211 1.07-17.037 1.07-17.037z" fill="#19253D"/><path d="M262.92 125.503l38.272-14.29-9.455-25.32-38.271 14.291 9.454 25.319z" fill="#19253D"/><path d="M253.417 100.082l9.455 25.333 38.356-14.272-1.516-.357-45.224-12.844-.714 1.427-.357.713z" fill="#19253D"/><path d="M253.774 99.369l9.009 24.262c.535-.178.268-.089 1.16-.446l13.737-19.445-23.192-5.888-.714 1.517z" fill="#fff"/><path d="M263.988 123.308l36.601-13.667-9.455-25.319-36.6 13.667 9.454 25.319zM140.98 72.765l33.376-23.558-15.585-22.08-33.376 23.558 15.585 22.08z" fill="#19253D"/><path d="M125.322 50.599l15.59 22.093 33.462-23.562-1.557.041-47.004-.915-.327 1.562-.164.781z" fill="#19253D"/><path d="M125.486 49.818l14.886 21.172c.472-.31.236-.155 1.008-.727l8.337-22.3-23.927.207-.304 1.648z" fill="#fff"/><path d="M141.455 70.37l31.918-22.53-15.585-22.08-31.919 22.53 15.586 22.08z" fill="#19253D"/><path d="M266.886 91.162c.446-.535 1.249-.892 1.784-.892.09-.535.714-.892 1.338-.98.357-.09.803 0 1.16.178.268-.625 1.07-.892 1.516-.714 0 0 .09 0 .268.09.178-.447.446-.625.446-.625.446-.625 1.606-.892 2.141-.625 0 0 4.014 1.606 4.46 4.728.357 3.122.981 6.78-.446 6.244-.446-.178-.803-.624-1.16-1.338.179 1.873.089 3.3-.892 2.944-.535-.179-1.07-.982-1.427-1.963.089 1.606-.089 2.676-.892 2.409-.803-.268-1.516-1.784-1.962-3.39.178 1.784 0 3.122-.892 2.854-1.16-.356-1.428-2.943-2.23-4.995-.892-2.408-1.16-1.16-2.498-2.051l-1.249.446a2.483 2.483 0 01.535-2.32zM148.964 39.694c-1.249 1.338-2.319.981-3.122 1.338-.268.09-1.427 2.498-1.784 2.23 0-4.124.446 2.408-.892 1.784-.714-.357-3.834.467-3.566-.604-1.695-.446-4.995-3.211-4.906-5.709.089-2.765 3.033-2.854 3.033-2.854.089-3.122 3.122-2.587 3.122-2.587.178-1.338 2.676-1.873 2.676-1.873.267-1.16 1.873-1.338 2.854-.803.981.446 4.547 6.134 4.815 7.294.268 1.16-2.23 1.784-2.23 1.784z" fill="#F9B587"/><path d="M144.06 43.015c.357 1.606-.981 1.784-.981 1.784.267-.178.267-.892.178-1.427 0 0 0-.357-.178-.892-.179-.535-.446-1.16-1.071-1.427-1.159-.536-1.695-.179-1.695-.179l-2.319-3.3c1.16.803 2.765 2.587 2.765 2.587 2.141 0 2.855 1.516 3.122 2.408.446 0 .892-.178 1.071-.803.357-1.16-.357-2.23-.357-2.23l-3.211-4.46s4.371 4.282 4.46 5.887c.178 2.052-1.784 2.052-1.784 2.052zm4.46-4.549s.713.713 1.605.446c.892-.268 1.071-.803.892-1.338 0 0 .536.535 0 1.249-.624.98-2.051.713-2.497.624v-.981z" fill="#F39568"/><path d="M144.773 33.738s2.855 3.568 3.212 4.55c.356 1.07-.268 2.051-1.071 2.23-.803.178-1.159-.179-1.159-.179v1.07s2.943.536 2.943-2.319c0-1.427-3.925-5.352-3.925-5.352z" fill="#F39568"/><path d="M392.391 206.498a8.212 8.212 0 01-3.479-4.638c-.178-.536-.357-1.16-.535-1.695-.803-2.23-.179-7.047 0-9.009.178-1.963 1.516-5.62 1.962-5.977.357-.357 2.765 1.338 1.873 3.747-.981 2.497-.267 5.173.268 5.976.535.803 2.765-.624 3.3-2.052.536-1.427 5.442-12.309 6.423-12.666.981-.357 1.784-.089 1.159 2.765-.624 2.765-3.657 7.671-3.3 9.099.357 1.338 1.16.267 1.338-.446.268-.714 4.192-11.061 4.817-11.418.624-.357 2.497-.981 1.516 3.39-.981 4.37-3.925 9.722-3.746 10.614.178.982 4.281-9.633 5.441-10.258 1.16-.624 1.962.446 1.07 3.122-.892 2.676-3.3 7.761-3.478 8.385-.179.446-.09.892.356.625.446-.268 2.944-6.512 3.568-6.869.625-.357 2.052.268.446 4.549-1.605 4.282-2.586 8.028-6.868 11.953-2.587 2.409-3.925 3.925-6.333 3.568-1.695-.267-3.925-1.605-5.798-2.765z" fill="#F9B587"/><path d="M339.317 194.545s1.07-11.596-8.028-13.915c-6.512-1.695-17.483 10.258-20.338 23.727-4.906 23.817 6.512 44.511 14.005 47.276 0 0 6.868-5.263 1.605-12.399 0 0-14.093-14.182-7.76-34.609 5.263-17.037 13.558-21.408 16.68-13.023l3.836 2.943zm-57.98 13.469l3.925-11.952s-.536-20.873 21.497-26.136a4.674 4.674 0 01-.268-2.23l.179-3.211c-2.855.267-30.953 8.385-25.333 43.529z" fill="#19253D"/><path d="M369.288 232.455c-.446-3.746 0-6.957 0-6.957-.535-.625-1.249-1.249-1.962-1.784-.892 7.314 1.962 8.741 1.962 8.741zm-88.754-94.998c.446.625.803 1.16 1.249 1.606 0 0 3.746-2.141 4.817-2.765 0 0-3.479.089-6.066 1.159z" fill="#F39568"/><path d="M339.852 309.792c1.962 1.873 3.568 6.244 4.638 9.812a50.64 50.64 0 011.338 5.262c1.784 1.963 5.798 1.338 12.31 2.052 5.798.624 9.901 4.728 14.272 6.422.446.179.981.357 1.427.446 2.587.714 4.371.268 5.441-.981.892-1.159 1.16-2.943.625-5.263-1.071-4.816-13.202-15.431-16.681-16.769-3.478-1.427-5.619-2.23-9.812-5.62-4.103-3.389-8.384-3.657-9.187-2.408-.179.178-.357.535-.625.981-1.248 2.141-3.746 6.066-3.746 6.066z" fill="#939597"/><path d="M343.598 303.815c1.338-.178 3.658-.178 5.352.714 2.498 1.427 5.977 4.817 9.812 6.601 3.747 1.784 10.972 6.69 14.718 10.258 3.747 3.568 5.977 9.098 4.906 10.882-1.07 1.784-3.122 1.784-5.887 1.16.446.178.981.356 1.427.446 4.906 1.248 7.136-1.428 5.977-6.244-1.071-4.817-13.202-15.432-16.681-16.77-3.478-1.427-5.619-2.23-9.812-5.62-4.103-3.389-8.384-3.657-9.187-2.408-.179.178-.357.535-.625.981z" fill="#19253D"/><path opacity=".2" d="M344.58 319.604a50.64 50.64 0 011.338 5.262c1.784 1.963 5.798 1.338 12.309 2.052 5.798.624 9.901 4.728 14.272 6.422.446.179.981.357 1.427.446 2.587.714 4.371.268 5.442-.981l.356-1.873s-4.37 2.141-9.276-.714c-3.836-2.23-5.531-4.37-8.564-5.173.536-2.319-.713-4.817-.713-4.817-.268 2.587-.981 4.371-.981 4.371-.625-.089-1.249-.089-1.963-.089-4.995.267-12.755-2.141-13.647-4.906z" fill="#19253D"/></svg>