<svg width="170" height="170" fill="none" xmlns="http://www.w3.org/2000/svg"><path d="M85 170c-46.865 0-85-38.128-85-85C0 38.135 38.135 0 85 0c46.872 0 85 38.135 85 85 0 46.872-38.128 85-85 85zm0-156.832C45.39 13.168 13.168 45.39 13.168 85c0 39.61 32.222 71.832 71.832 71.832 39.61 0 71.832-32.229 71.832-71.832 0-39.61-32.222-71.832-71.832-71.832z" fill="#fff"/><path d="M85 160c41.421 0 75-33.579 75-75s-33.579-75-75-75-75 33.579-75 75 33.579 75 75 75z" fill="#19253D"/><path d="M122.595 103.304a6.582 6.582 0 01-9.284 0L85.066 75.058 56.82 103.304a6.589 6.589 0 01-9.283-.718 6.579 6.579 0 010-8.566l32.92-32.92a6.58 6.58 0 019.283 0l32.921 32.92a6.581 6.581 0 01-.066 9.284z" fill="#fff"/></svg>