<svg width="26" height="26" fill="none" xmlns="http://www.w3.org/2000/svg"><path d="M13 0C5.82 0 0 5.82 0 13s5.82 13 13 13 13-5.82 13-13S20.18 0 13 0zm5.637 14.718c.103.127.346.373.73.74h.01l.009.009.009.01.018.017c.848.788 1.422 1.453 1.723 1.994.018.03.038.067.059.113.02.045.041.124.063.238.02.115.019.217-.005.307s-.099.173-.225.248c-.127.076-.304.113-.532.113l-2.31.036c-.144.03-.312.015-.505-.045a2.211 2.211 0 01-.469-.198l-.18-.109a4.22 4.22 0 01-.632-.577c-.24-.259-.446-.492-.618-.7a2.997 2.997 0 00-.55-.522c-.196-.142-.365-.188-.51-.14a.73.73 0 00-.072.032 1.157 1.157 0 00-.347.397 1.848 1.848 0 00-.154.468 2.938 2.938 0 00-.058.7.93.93 0 01-.032.248.606.606 0 01-.068.166l-.036.045c-.108.115-.268.181-.478.199H12.44a4.087 4.087 0 01-1.317-.149 5.041 5.041 0 01-1.186-.478 10.67 10.67 0 01-.93-.595 5.379 5.379 0 01-.635-.519l-.225-.216c-.06-.06-.143-.15-.248-.271-.106-.12-.32-.394-.645-.82a22.184 22.184 0 01-.956-1.363 27.776 27.776 0 01-1.106-1.903 29.75 29.75 0 01-1.177-2.454.717.717 0 01-.054-.243c0-.066.009-.114.027-.144l.036-.054c.09-.115.262-.172.514-.172l2.472-.018a.964.964 0 01.352.135l.045.027a.597.597 0 01.216.29c.12.3.259.611.415.933.157.322.28.567.37.735l.144.262c.175.36.343.673.505.938.163.264.309.47.438.618.13.147.254.263.374.347.12.084.223.126.307.126a.675.675 0 00.244-.045.162.162 0 00.045-.045c.018-.024.054-.09.108-.199a1.46 1.46 0 00.122-.424 13.3 13.3 0 00.086-.73c.03-.313.03-.688 0-1.127a4.332 4.332 0 00-.081-.659 1.746 1.746 0 00-.127-.415l-.054-.108c-.15-.204-.406-.334-.767-.388-.078-.012-.063-.084.045-.216a1.22 1.22 0 01.343-.27c.319-.157 1.037-.23 2.156-.218.493.007.9.046 1.218.118.12.03.22.07.302.122.081.05.143.123.185.216.042.093.074.19.095.288.02.1.031.237.031.41 0 .175-.003.341-.009.497l-.022.636c-.01.268-.014.516-.014.744 0 .067-.003.193-.009.379-.006.187-.008.33-.004.433.003.102.013.224.031.365a.99.99 0 00.104.352c.05.093.119.167.203.22.048.013.1.025.153.037.054.012.133-.02.235-.1a3.29 3.29 0 00.342-.31 4.61 4.61 0 00.47-.605c.186-.273.39-.596.613-.97.36-.624.682-1.301.965-2.029a.612.612 0 01.09-.158.4.4 0 01.1-.095l.035-.027.045-.022a.74.74 0 01.298-.031l2.598-.019a1.44 1.44 0 01.577.022c.15.045.244.095.28.15l.054.09c.138.385-.313 1.268-1.353 2.651-.144.193-.34.449-.586.767-.47.602-.74.996-.811 1.183-.103.246-.061.49.125.73z" fill="#FFB319"/></svg>