<svg width="351" height="80" viewBox="0 0 351 80" fill="none" xmlns="http://www.w3.org/2000/svg">
<path d="M92.32 44V10.4H105.568C109.472 10.4 112.576 11.424 114.88 13.472C117.184 15.52 118.336 18.272 118.336 21.728C118.336 25.344 117.056 28.16 114.496 30.176C111.968 32.192 108.768 33.2 104.896 33.2H98.224V44H92.32ZM98.224 27.872H105.088C107.296 27.872 109.056 27.312 110.368 26.192C111.68 25.072 112.336 23.6 112.336 21.776C112.336 19.856 111.68 18.384 110.368 17.36C109.088 16.304 107.328 15.776 105.088 15.776H98.224V27.872ZM135.327 44.576C131.615 44.576 128.511 43.344 126.015 40.88C123.551 38.416 122.319 35.232 122.319 31.328C122.319 27.648 123.487 24.528 125.823 21.968C128.159 19.408 131.119 18.128 134.703 18.128C138.543 18.128 141.519 19.44 143.631 22.064C145.775 24.656 146.847 27.888 146.847 31.76C146.847 32.464 146.815 33.008 146.751 33.392H128.127C128.447 35.408 129.263 36.992 130.575 38.144C131.887 39.264 133.503 39.824 135.423 39.824C137.919 39.824 140.207 38.816 142.287 36.8L145.695 39.824C143.071 42.992 139.615 44.576 135.327 44.576ZM128.079 29.552H141.087C140.895 27.6 140.239 26 139.119 24.752C137.999 23.504 136.511 22.88 134.655 22.88C132.895 22.88 131.423 23.504 130.239 24.752C129.055 25.968 128.335 27.568 128.079 29.552ZM152.679 44V18.656H175.287V44H169.479V23.648H158.487V44H152.679ZM194.202 44.576C190.49 44.576 187.386 43.344 184.89 40.88C182.426 38.416 181.194 35.232 181.194 31.328C181.194 27.648 182.362 24.528 184.698 21.968C187.034 19.408 189.994 18.128 193.578 18.128C197.418 18.128 200.394 19.44 202.506 22.064C204.65 24.656 205.722 27.888 205.722 31.76C205.722 32.464 205.69 33.008 205.626 33.392H187.002C187.322 35.408 188.138 36.992 189.45 38.144C190.762 39.264 192.378 39.824 194.298 39.824C196.794 39.824 199.082 38.816 201.162 36.8L204.57 39.824C201.946 42.992 198.49 44.576 194.202 44.576ZM186.954 29.552H199.962C199.77 27.6 199.114 26 197.994 24.752C196.874 23.504 195.386 22.88 193.53 22.88C191.77 22.88 190.298 23.504 189.114 24.752C187.93 25.968 187.21 27.568 186.954 29.552ZM216.978 44V23.648H208.818V18.656H230.994V23.648H222.834V44H216.978ZM235.601 44V18.656H241.265V35.648C246.577 28.096 250.577 22.432 253.265 18.656H258.737V44H253.121V27.104L241.073 44H235.601ZM271.447 44V23.648H263.287V18.656H285.463V23.648H277.303V44H271.447ZM302.118 44.576C298.278 44.576 295.078 43.296 292.518 40.736C289.958 38.176 288.678 35.056 288.678 31.376C288.678 27.696 289.974 24.576 292.566 22.016C295.158 19.424 298.374 18.128 302.214 18.128C306.054 18.128 309.254 19.408 311.814 21.968C314.406 24.528 315.702 27.664 315.702 31.376C315.702 35.024 314.406 38.144 311.814 40.736C309.222 43.296 305.99 44.576 302.118 44.576ZM302.214 39.536C304.518 39.536 306.374 38.752 307.782 37.184C309.19 35.616 309.894 33.68 309.894 31.376C309.894 29.104 309.158 27.184 307.686 25.616C306.214 24.016 304.358 23.216 302.118 23.216C299.846 23.216 298.006 24 296.598 25.568C295.19 27.136 294.486 29.072 294.486 31.376C294.486 33.616 295.222 35.536 296.694 37.136C298.166 38.736 300.006 39.536 302.214 39.536ZM321.617 51.68V18.656H327.425V22.88C329.665 19.712 332.529 18.128 336.017 18.128C339.217 18.128 341.985 19.328 344.321 21.728C346.657 24.096 347.825 27.312 347.825 31.376C347.825 35.376 346.657 38.576 344.321 40.976C341.985 43.344 339.217 44.528 336.017 44.528C332.529 44.528 329.665 43.04 327.425 40.064V51.68H321.617ZM334.673 39.488C336.721 39.488 338.433 38.736 339.809 37.232C341.217 35.728 341.921 33.744 341.921 31.28C341.921 28.88 341.217 26.928 339.809 25.424C338.401 23.92 336.689 23.168 334.673 23.168C332.657 23.168 330.913 23.936 329.441 25.472C328.001 27.008 327.281 28.976 327.281 31.376C327.281 33.744 328.001 35.696 329.441 37.232C330.913 38.736 332.657 39.488 334.673 39.488Z" fill="#262727"/>
<path d="M125.08 68V54H135.92V68H134.88V54.96H126.12V68H125.08ZM148.12 66.66C147.12 67.7133 145.873 68.24 144.38 68.24C142.887 68.24 141.64 67.72 140.64 66.68C139.653 65.6267 139.16 64.3667 139.16 62.9C139.16 61.4467 139.66 60.1933 140.66 59.14C141.673 58.0867 142.927 57.56 144.42 57.56C145.913 57.56 147.153 58.0867 148.14 59.14C149.14 60.18 149.64 61.4333 149.64 62.9C149.64 64.3533 149.133 65.6067 148.12 66.66ZM144.42 67.32C145.553 67.32 146.527 66.8867 147.34 66.02C148.167 65.1533 148.58 64.1133 148.58 62.9C148.58 61.6733 148.167 60.6333 147.34 59.78C146.527 58.9133 145.54 58.48 144.38 58.48C143.233 58.48 142.253 58.9133 141.44 59.78C140.627 60.6333 140.22 61.6733 140.22 62.9C140.22 64.1267 140.627 65.1733 141.44 66.04C142.253 66.8933 143.247 67.32 144.42 67.32ZM152.653 68V57.8H153.533L157.693 63.66L161.853 57.8H162.733V68H161.753V59.5L157.653 65.14L153.593 59.5V68H152.653ZM174.722 66.66C173.722 67.7133 172.475 68.24 170.982 68.24C169.488 68.24 168.242 67.72 167.242 66.68C166.255 65.6267 165.762 64.3667 165.762 62.9C165.762 61.4467 166.262 60.1933 167.262 59.14C168.275 58.0867 169.528 57.56 171.022 57.56C172.515 57.56 173.755 58.0867 174.742 59.14C175.742 60.18 176.242 61.4333 176.242 62.9C176.242 64.3533 175.735 65.6067 174.722 66.66ZM171.022 67.32C172.155 67.32 173.128 66.8867 173.942 66.02C174.768 65.1533 175.182 64.1133 175.182 62.9C175.182 61.6733 174.768 60.6333 173.942 59.78C173.128 58.9133 172.142 58.48 170.982 58.48C169.835 58.48 168.855 58.9133 168.042 59.78C167.228 60.6333 166.822 61.6733 166.822 62.9C166.822 64.1267 167.228 65.1733 168.042 66.04C168.855 66.8933 169.848 67.32 171.022 67.32ZM194.115 70.88V68H179.255V57.8H180.235V67.12H185.875V57.8H186.855V67.12H192.495V57.8H193.475V67.12H195.115L194.915 70.88H194.115ZM197.575 68V57.8H198.555V61.72H201.595C202.728 61.72 203.662 61.9733 204.395 62.48C205.128 62.9733 205.495 63.72 205.495 64.72C205.495 65.7067 205.155 66.5 204.475 67.1C203.795 67.7 202.895 68 201.775 68H197.575ZM198.555 67.12H201.615C202.482 67.12 203.168 66.9133 203.675 66.5C204.182 66.0867 204.435 65.5067 204.435 64.76C204.435 64.08 204.175 63.5533 203.655 63.18C203.135 62.7933 202.428 62.6 201.535 62.6H198.555V67.12ZM218.657 68.24C217.19 68.24 215.957 67.72 214.957 66.68C213.957 65.64 213.457 64.38 213.457 62.9C213.457 61.4333 213.957 60.18 214.957 59.14C215.97 58.0867 217.204 57.56 218.657 57.56C220.244 57.56 221.597 58.1933 222.717 59.46L222.037 60.16C220.944 59.04 219.81 58.48 218.637 58.48C217.504 58.48 216.53 58.9133 215.717 59.78C214.917 60.6467 214.517 61.6867 214.517 62.9C214.517 64.1267 214.924 65.1733 215.737 66.04C216.55 66.8933 217.544 67.32 218.717 67.32C219.93 67.32 221.057 66.74 222.097 65.58L222.817 66.22C221.63 67.5667 220.244 68.24 218.657 68.24ZM228.143 68V58.68H224.323V57.8H232.943V58.68H229.123V68H228.143ZM236.647 71.26C235.967 71.26 235.294 71.1133 234.627 70.82L234.967 69.96C235.487 70.2133 236.067 70.34 236.707 70.34C237.24 70.34 237.7 70.16 238.087 69.8C238.474 69.44 238.854 68.82 239.227 67.94L234.327 57.8H235.467L239.707 66.92L243.387 57.8H244.467L240.047 68.36C239.607 69.4 239.114 70.14 238.567 70.58C238.034 71.0333 237.394 71.26 236.647 71.26ZM245.585 70.88V67.12H246.925C247.925 65.48 248.425 63.0933 248.425 59.96V57.8H255.265V67.12H256.905L256.705 70.88H255.905V68H246.605L246.405 70.88H245.585ZM248.005 67.12H254.285V58.68H249.365V60.52C249.365 61.8533 249.238 63.1133 248.985 64.3C248.745 65.4867 248.418 66.4267 248.005 67.12ZM263.672 68.24C262.298 68.24 261.118 67.74 260.132 66.74C259.158 65.74 258.672 64.4533 258.672 62.88C258.672 61.3867 259.132 60.1267 260.052 59.1C260.985 58.0733 262.138 57.56 263.512 57.56C264.912 57.56 266.038 58.0667 266.892 59.08C267.758 60.0933 268.192 61.3667 268.192 62.9C268.192 63.06 268.185 63.1933 268.172 63.3H259.712C259.805 64.5267 260.232 65.5067 260.992 66.24C261.765 66.96 262.672 67.32 263.712 67.32C265.045 67.32 266.212 66.7867 267.212 65.72L267.892 66.32C266.705 67.6 265.298 68.24 263.672 68.24ZM259.712 62.42H267.132C267.052 61.3 266.698 60.36 266.072 59.6C265.445 58.84 264.578 58.46 263.472 58.46C262.472 58.46 261.618 58.84 260.912 59.6C260.205 60.3467 259.805 61.2867 259.712 62.42ZM271.051 68V57.8H272.031V62.34H278.811V57.8H279.791V68H278.811V63.22H272.031V68H271.051ZM286.072 68V58.68H282.252V57.8H290.872V58.68H287.052V68H286.072ZM296.437 68.24C295.317 68.24 294.377 67.96 293.617 67.4C292.87 66.8267 292.497 66.0267 292.497 65C292.497 63.96 292.903 63.1467 293.717 62.56C294.53 61.9733 295.61 61.68 296.957 61.68C298.103 61.68 299.23 61.8267 300.337 62.12V61.68C300.337 60.6667 300.043 59.8933 299.457 59.36C298.87 58.8267 298.043 58.56 296.977 58.56C295.91 58.56 294.843 58.8333 293.777 59.38L293.417 58.52C294.683 57.9333 295.89 57.64 297.037 57.64C298.437 57.64 299.51 58.0133 300.257 58.76C300.95 59.4533 301.297 60.4133 301.297 61.64V68H300.337V66.3C299.417 67.5933 298.117 68.24 296.437 68.24ZM296.497 67.32C297.563 67.32 298.47 67.0267 299.217 66.44C299.977 65.84 300.357 65.0867 300.357 64.18V63.02C299.157 62.7133 298.003 62.56 296.897 62.56C295.83 62.56 295.003 62.78 294.417 63.22C293.843 63.6467 293.557 64.2333 293.557 64.98C293.557 65.7133 293.823 66.2867 294.357 66.7C294.89 67.1133 295.603 67.32 296.497 67.32ZM304.821 68V57.8H305.701L309.861 63.66L314.021 57.8H314.901V68H313.921V59.5L309.821 65.14L305.761 59.5V68H304.821Z" fill="#262727" fill-opacity="0.8"/>
<line x1="92" y1="61.5" x2="114" y2="61.5" stroke="#262727" stroke-opacity="0.8"/>
<line x1="326" y1="61.5" x2="348" y2="61.5" stroke="#262727" stroke-opacity="0.8"/>
<path d="M5.07225 0.175361C2.70221 0.795271 0.834901 2.63703 0.161594 5.02683C0.00897743 5.58385 0 6.99437 0 39.9754C0 72.9564 0.00897743 74.3669 0.161594 74.9239C0.538646 76.2626 1.38252 77.5743 2.40595 78.4278C3.0613 78.9668 4.31814 79.6047 5.20691 79.8383C5.8084 79.991 6.87671 80 31.6005 80H57.3658L58.0929 79.8023C60.1398 79.2543 61.6659 78.0145 62.5727 76.1368C63.2909 74.6544 63.255 75.4001 63.228 62.6874L63.2011 51.3943L59.8974 55.0688L56.6027 58.7524V66.0296V73.3068H31.6005H6.59841V39.9754V6.64399H31.6005H56.6027L56.6206 12.295L56.6476 17.9461L59.9513 14.2536L63.2639 10.5611L63.228 8.0006C63.1921 5.61979 63.1742 5.3862 62.9856 4.80222C62.3572 2.87961 61.1093 1.45112 59.3408 0.624571C57.8954 -0.0582286 60.2834 -0.00432343 31.5377 0.00466077C6.32909 0.00466077 5.7276 0.013645 5.07225 0.175361Z" fill="#262727"/>
<path d="M75.6438 4.89206C75.3296 5.00886 74.9256 5.21549 74.7461 5.35924C74.5665 5.50299 73.3995 6.75179 72.1606 8.13536L69.8893 10.642L70.0958 10.8306C70.805 11.5134 82.6642 22.0968 82.7091 22.0878C82.8527 22.0788 87.1888 17.1196 87.4222 16.7063C87.925 15.8348 88.0417 14.9274 87.7993 13.9661C87.512 12.879 87.3504 12.7083 83.2746 9.03378C81.1919 7.1471 79.2528 5.45807 78.9834 5.27838C78.7141 5.08971 78.2832 4.87409 78.0318 4.80222C77.3406 4.59558 76.3351 4.63152 75.6438 4.89206ZM81.2368 11.765C83.0861 13.4181 84.6033 14.8106 84.6033 14.8645C84.6033 14.9454 84.1993 15.4126 82.7988 16.9578L82.4487 17.3442L81.8921 16.859C80.1774 15.3497 74.8628 10.5701 74.791 10.4713C74.7281 10.3814 75.0244 10.0041 75.8144 9.1326L76.9186 7.91075L77.3944 8.33301C77.6548 8.5666 79.3874 10.1119 81.2368 11.765Z" fill="#262727"/>
<path d="M67.205 13.6607C66.3611 14.595 65.6699 15.4036 65.6699 15.4485C65.6699 15.4934 68.39 17.9641 71.7117 20.9469C75.0244 23.9296 77.8882 26.4991 78.0677 26.6608L78.3999 26.9483L79.935 25.2413C80.7789 24.298 81.4701 23.4894 81.4701 23.4534C81.4701 23.3906 78.0138 20.2551 69.5212 12.6455L68.7402 11.9447L67.205 13.6607Z" fill="#262727"/>
<path d="M14.6152 15.6731C13.2776 16.0864 12.3619 17.2453 12.2721 18.6379C12.1734 20.1922 13.0981 21.5488 14.5793 22.007C15.1359 22.1866 15.4412 22.1866 31.6005 22.1866C47.4547 22.1866 48.0741 22.1777 48.6038 22.0159C49.9594 21.5937 50.9469 20.264 50.9469 18.8535C50.9469 17.8383 50.3274 16.6703 49.4746 16.1043C48.5858 15.5024 49.8337 15.5383 31.5646 15.5473C18.1254 15.5473 14.9205 15.5743 14.6152 15.6731Z" fill="#262727"/>
<path d="M51.0367 31.674C43.756 39.7957 37.6603 46.6058 37.4987 46.8034L37.2025 47.1538L37.5436 47.4682C37.7321 47.6389 40.6139 50.2264 43.9445 53.2091L49.9953 58.6446L50.3634 58.2223C51.9075 56.4974 76.7839 28.7362 76.9455 28.5565L77.161 28.3319L70.787 22.609C67.2858 19.4645 64.3861 16.886 64.3502 16.886C64.3143 16.895 58.3174 23.5433 51.0367 31.674ZM65.5442 22.7976C65.7327 22.9414 66.0649 23.2468 66.2804 23.4714C66.6035 23.8308 66.6574 23.9476 66.6574 24.271C66.6574 24.7292 66.5587 24.882 65.6699 25.8612C64.9517 26.6518 64.6554 26.8585 64.2604 26.8585C63.9552 26.8495 63.7667 26.7417 63.1652 26.2296C62.429 25.5917 62.2674 25.1155 62.6086 24.5675C62.851 24.1632 64.0988 22.8066 64.3412 22.6718C64.7003 22.4742 65.1582 22.5191 65.5442 22.7976ZM59.9692 28.5206C60.4361 28.7092 61.253 29.5268 61.3697 29.9041C61.4505 30.1647 61.4415 30.2994 61.3338 30.542C61.1902 30.8834 45.9285 47.9444 45.6143 48.1241C45.5156 48.187 45.2552 48.2319 45.0487 48.2409C44.7166 48.2409 44.5909 48.178 44.1061 47.7647C43.3969 47.1718 43.1635 46.7405 43.2981 46.2823C43.3789 46.0398 45.4348 43.6859 51.1265 37.3341C55.3818 32.5904 58.9278 28.6643 59.0086 28.6014C59.1433 28.5116 59.3677 28.4307 59.5922 28.3948C59.6281 28.3948 59.7987 28.4487 59.9692 28.5206Z" fill="#262727"/>
<path d="M14.8128 29.5896C13.8252 29.8322 12.9993 30.497 12.5504 31.4224C12.326 31.8806 12.2991 32.0333 12.2991 32.8329C12.2991 33.6685 12.317 33.7673 12.5863 34.2794C12.9454 34.9712 13.7085 35.6719 14.3908 35.9505L14.9025 36.1571L27.6146 36.184L40.3356 36.211L43.2802 32.9228C44.9051 31.108 46.2517 29.5986 46.2607 29.5447C46.3145 29.4099 15.3694 29.4549 14.8128 29.5896Z" fill="#262727"/>
<path d="M14.6781 43.4432C13.6457 43.7128 12.6761 44.6651 12.3709 45.7163C11.94 47.2076 12.7031 48.9236 14.1125 49.6424L14.6332 49.9029L22.3987 49.9209L30.1642 49.9478L31.6903 47.2436C32.5342 45.7522 33.3691 44.2518 33.5576 43.9194L33.9077 43.2995L24.5353 43.3085C16.6442 43.3085 15.0911 43.3354 14.6781 43.4432Z" fill="#262727"/>
<path d="M33.414 56.6231C32.0763 61.2859 31.1876 64.5112 31.1966 64.7268C31.2055 65.4186 31.7172 66.1553 32.3546 66.4069C33.0369 66.6764 33.0908 66.6495 40.9011 63.4511C44.9769 61.78 48.3165 60.3695 48.3165 60.3246C48.3255 60.2527 35.7391 48.8697 35.6583 48.8697C35.6494 48.8697 34.6349 52.3556 33.414 56.6231ZM40.5869 56.3176C42.5889 58.1145 44.1959 59.6148 44.151 59.6508C44.0971 59.6957 40.569 61.1601 38.5939 61.9597C38.4772 62.0046 35.1466 59.0488 35.1466 58.9051C35.1466 58.6535 36.8074 53.0025 36.8793 53.0294C36.9152 53.0384 38.585 54.5208 40.5869 56.3176Z" fill="#262727"/>
<path d="M14.5704 57.4407C13.6547 57.7641 12.9454 58.411 12.5325 59.2824C12.335 59.7137 12.2991 59.9023 12.2991 60.639C12.2991 61.3398 12.335 61.5734 12.5056 61.9328C12.9454 62.8941 13.7355 63.5679 14.723 63.8284C15.1718 63.9452 16.0786 63.9632 20.7558 63.9632H26.259V63.7386C26.259 63.5769 27.7672 58.1414 28.0096 57.4227C28.0634 57.261 15.0462 57.27 14.5704 57.4407Z" fill="#262727"/>
</svg>
