<svg width="26" height="26" viewBox="0 0 26 26" fill="none" xmlns="http://www.w3.org/2000/svg">
<path d="M13 0C5.82037 0 0 5.82037 0 13C0 20.1796 5.82037 26 13 26C20.1796 26 26 20.1796 26 13C26 5.82037 20.1796 0 13 0ZM20.7767 7.61383C20.7825 7.61383 20.7876 7.61699 20.7934 7.61725L13.5391 14.8715C13.2974 15.1132 12.8692 15.1138 12.6275 14.871L5.37036 7.61383H20.7767ZM4.86445 8.09916C4.86445 8.09521 4.86656 8.09205 4.86656 8.08836L9.79772 13.0195L4.86445 17.9528V8.09916ZM5.34979 18.5217C5.32738 18.5217 5.30814 18.5119 5.28652 18.509L10.2867 13.5088L12.1382 15.3603C12.39 15.612 12.7256 15.7504 13.0833 15.7504C13.4413 15.7504 13.7764 15.6115 14.0281 15.3603L15.8198 13.5686L20.7728 18.5217H5.34979ZM21.2621 18.0326L16.3091 13.0796L21.2621 8.12684V18.0326Z" fill="#FFB319"/>
</svg>
