<svg width="446" height="446" viewBox="0 0 446 446" fill="none" xmlns="http://www.w3.org/2000/svg">
<path d="M54.6796 273.755C56.196 273.666 57.4448 272.863 58.5152 271.792L58.6044 271.703C60.4776 269.652 61.8156 266.619 63.1536 264.3C63.5104 263.586 63.9564 263.051 64.3132 262.516C65.562 260.91 67.792 256.807 69.6652 252.971C69.7544 252.793 69.8436 252.614 69.9328 252.436C71.806 248.69 73.3224 245.389 73.3224 245.389C73.3224 245.389 72.6088 243.338 71.5384 241.197C71.1816 240.572 70.8248 239.859 70.3788 239.324C69.576 238.075 68.5948 237.094 67.5244 236.826C64.3132 235.845 61.3696 237.986 58.872 240.84C56.4636 243.694 49.7736 255.469 48.7032 260.464C48.7032 260.553 48.614 260.642 48.614 260.732C47.5436 266.886 49.5952 274.112 54.6796 273.755Z" fill="#939597"/>
<path d="M54.6796 273.755C56.2852 273.666 57.534 272.863 58.6044 271.703C55.1256 273.398 52.9848 272.328 51.736 270.99C50.2196 269.295 49.5952 264.478 50.0412 262.516C51.0224 257.61 54.5904 249.938 56.4636 246.906C58.3368 243.873 61.9048 238.788 65.4728 238.342C67.5244 238.075 69.2192 238.699 70.2896 239.324C69.4868 238.075 68.5056 237.094 67.4352 236.826C64.224 235.845 61.2804 237.986 58.7828 240.84C56.2852 243.694 49.4168 256.004 48.614 260.732C47.5436 266.886 49.5952 274.112 54.6796 273.755Z" fill="#19253D"/>
<path opacity="0.2" d="M54.6796 273.755C56.196 273.666 57.4448 272.863 58.5152 271.792L58.6044 271.703C60.4776 269.652 61.8156 266.619 63.1536 264.3C63.5104 263.586 63.9564 263.051 64.3132 262.516C65.562 260.91 67.792 256.807 69.6652 252.971C69.7544 252.793 69.8436 252.614 69.9328 252.436C69.3084 251.722 68.5056 251.455 67.5244 251.722C67.5244 251.722 65.0268 254.042 62.7076 258.769C60.1208 263.943 58.7828 268.849 53.966 268.938C49.1492 268.938 50.0412 265.816 49.3276 261.267C49.2384 260.642 49.06 260.464 48.7924 260.553C48.7924 260.642 48.7032 260.732 48.7032 260.821C47.5436 266.886 49.5952 274.112 54.6796 273.755Z" fill="#19253D"/>
<path d="M134.692 317.195C134.781 319.871 136.833 337.622 142.631 341.19C145.574 342.974 147.269 342.974 148.072 341.547C148.518 340.744 148.786 339.584 148.786 338.068C148.786 336.998 148.696 335.749 148.518 334.411C147.715 327.899 147.626 312.824 153.335 309.613C153.335 309.613 152.264 301.853 149.588 297.036C148.786 295.609 147.804 294.449 146.734 293.825C146.734 293.825 142.72 293.825 140.222 294.182C139.152 294.36 137.636 294.271 136.298 294.628C134.514 295.163 132.819 296.322 132.462 299.623C131.659 305.599 134.603 314.519 134.692 317.195Z" fill="#939597"/>
<path d="M134.692 317.195C134.781 319.871 136.833 337.622 142.631 341.19C145.574 342.974 147.269 342.974 148.072 341.547C146.556 341.636 144.593 341.101 142.72 339.584C140.222 337.444 137.011 325.223 137.279 321.298C137.457 317.374 135.852 310.238 134.424 304.707C133.354 300.515 135.316 296.412 136.387 294.628C134.603 295.163 132.908 296.322 132.551 299.623C131.659 305.599 134.603 314.519 134.692 317.195Z" fill="#19253D"/>
<path opacity="0.2" d="M134.693 317.195C134.782 319.871 136.833 337.622 142.631 341.19C145.575 342.974 147.27 342.974 148.073 341.547C148.519 340.744 148.786 339.584 148.786 338.068C147.716 338.336 146.021 337.89 144.059 336.819C140.669 334.946 139.955 324.51 140.491 317.641C140.937 310.773 136.923 305.421 139.242 301.05C141.561 296.768 149.411 297.75 149.411 297.75C149.5 297.482 149.589 297.304 149.678 297.036C148.875 295.609 147.894 294.449 146.824 293.825C146.824 293.825 142.81 293.825 140.312 294.182C139.242 294.36 137.725 294.271 136.387 294.628C134.603 295.163 132.909 296.322 132.552 299.623C131.66 305.599 134.603 314.519 134.693 317.195Z" fill="#19253D"/>
<path d="M135.138 129.251C135.138 129.251 100.35 130.232 93.66 146.199C87.0592 162.255 107.932 208.104 119.26 213.634C130.5 219.164 146.466 212.385 151.818 206.766C157.17 201.057 148.25 134.068 135.138 129.251Z" fill="#19253D"/>
<path d="M113.462 171.978C113.462 171.978 113.373 178.49 110.786 185.536C110.786 185.536 109.984 190.264 108.824 196.062C107.397 202.93 105.97 207.926 103.918 212.118C102.223 215.597 100.974 218.986 100.082 221.662C99.9932 222.019 99.904 222.287 99.8148 222.554C99.012 225.141 98.6552 226.836 98.6552 226.836L90.984 224.249C90.984 224.249 90.538 216.221 90.6272 211.85C90.8056 206.409 90.2704 195.794 93.66 187.053C93.9276 186.339 94.1952 185.715 94.552 185.18C94.552 185.18 95.5332 176.527 96.9604 170.818C97.4064 168.945 97.9416 167.34 98.4768 166.537C98.4768 166.448 109.805 165.199 113.462 171.978Z" fill="#F9B587"/>
<path d="M99.458 185.893C99.458 185.893 94.998 185.982 93.66 187.052C93.9276 186.339 94.1952 185.714 94.552 185.179C94.552 185.09 97.9416 184.912 99.458 185.893Z" fill="#F39568"/>
<path d="M113.462 171.978C113.462 171.978 113.373 178.489 110.786 185.536C110.786 185.536 109.984 190.264 108.824 196.062C109.27 191.691 109.002 183.841 109.092 178.043C109.181 174.118 105.613 173.226 102.58 172.067C101.331 171.621 98.7444 171.086 97.3172 170.64C97.228 170.64 97.228 170.64 97.1388 170.729C97.5848 168.856 98.12 167.25 98.6552 166.447C98.4768 166.447 109.805 165.198 113.462 171.978Z" fill="#F39568"/>
<path d="M97.4064 220.859L104.721 226.033C105.524 226.568 105.97 227.46 105.97 228.441L106.059 235.488C106.059 236.291 105.434 237.004 104.542 237.004C103.829 237.004 103.204 236.558 103.026 235.845L101.331 229.244L99.6364 228.62L100.707 232.544L102.045 236.112L105.345 240.305C105.791 240.929 105.702 241.821 105.078 242.267C104.542 242.624 103.74 242.624 103.294 242.089L98.9228 237.54L95.9792 233.972L98.2984 238.521L102.758 245.211C103.026 245.657 103.026 246.192 102.758 246.638C102.312 247.352 101.331 247.441 100.796 246.816L95.9792 242L93.214 237.718L95.6224 245.3L97.7632 250.117C98.0308 250.652 97.7632 251.276 97.3172 251.544C96.782 251.901 96.0684 251.722 95.7116 251.187L92.5896 246.192L90.3596 240.394L91.7868 245.389L92.5896 247.084C92.768 247.441 92.5896 247.887 92.2328 248.065C91.9652 248.244 91.5192 248.154 91.3408 247.798L90.1812 246.192L88.3972 242L90.8948 224.16C90.984 224.16 91.9652 221.751 97.4064 220.859Z" fill="#F9B587"/>
<path d="M99.7256 222.465C99.7256 222.465 97.4956 221.127 94.8196 221.484C94.8196 221.484 97.674 220.413 99.9932 221.573L99.7256 222.465Z" fill="#F39568"/>
<path d="M169.391 115.692C177.151 100.35 174.029 80.1908 173.494 75.1064C173.405 74.6604 173.226 74.036 172.959 73.3224C170.015 66.2756 156.635 47.3652 153.602 43.1728C153.424 42.9052 153.246 42.6376 153.156 42.5484C153.067 42.37 152.978 42.37 152.978 42.37L143.612 46.7408C143.612 46.7408 149.945 53.3416 152.354 61.6372C154.851 69.9328 160.738 80.726 160.738 80.726C158.152 90.3596 157.973 102.848 157.973 102.848C162.433 113.373 169.391 115.692 169.391 115.692Z" fill="#F9B587"/>
<path d="M169.391 115.692C177.151 100.35 174.029 80.1908 173.494 75.1064C173.405 74.6604 173.226 74.036 172.959 73.3224C172.959 73.59 172.691 89.8244 171.71 95.0872C170.64 100.35 168.945 105.88 165.823 106.683C162.701 107.397 159.668 105.702 157.973 102.848C162.433 113.373 169.391 115.692 169.391 115.692Z" fill="#F39568"/>
<path d="M152.889 42.9944C151.64 44.3324 146.199 47.9896 145.396 48.3464C145.128 48.4356 144.772 48.2572 144.415 47.9896C144.058 47.9896 141.65 48.0788 140.312 47.4544C139.598 47.0976 139.598 46.1164 139.866 45.046C138.171 44.6 134.87 41.8348 134.96 39.3372C135.049 36.572 137.992 36.4828 137.992 36.4828C138.082 33.3608 141.114 33.896 141.114 33.896C141.293 32.558 143.79 32.0228 143.79 32.0228C144.058 30.8632 145.664 30.6848 146.645 31.22C147.626 31.666 153.156 38.5344 153.424 39.694C153.692 40.8536 152.889 42.9944 152.889 42.9944Z" fill="#F9B587"/>
<path d="M144.326 43.6188C144.682 45.2244 143.344 45.4028 143.344 45.4028C143.612 45.2244 143.612 44.5108 143.523 43.9756C143.523 43.9756 143.523 43.6188 143.344 43.0836C143.166 42.5484 142.898 41.924 142.274 41.6564C141.114 41.1212 140.579 41.478 140.579 41.478L138.26 38.1776C139.42 38.9804 141.025 40.7644 141.025 40.7644C143.166 40.7644 143.88 42.2808 144.147 43.1728C144.593 43.1728 145.039 42.9944 145.218 42.37C145.574 41.2104 144.861 40.14 144.861 40.14L141.65 35.68C141.65 35.68 146.02 39.9616 146.11 41.5672C146.288 43.6188 144.326 43.6188 144.326 43.6188Z" fill="#F39568"/>
<path d="M148.786 39.0696C148.786 39.0696 149.499 39.7832 150.391 39.5156C151.283 39.248 151.462 38.7128 151.283 38.1776C151.283 38.1776 151.818 38.7128 151.283 39.4264C150.659 40.4076 149.232 40.14 148.786 40.0508V39.0696Z" fill="#F39568"/>
<path d="M145.039 34.342C145.039 34.342 147.894 37.91 148.25 38.8912C148.607 39.9616 147.983 40.9428 147.18 41.1212C146.377 41.2996 146.02 40.9428 146.02 40.9428V42.0132C146.02 42.0132 148.964 42.5484 148.964 39.694C148.964 38.2668 145.039 34.342 145.039 34.342Z" fill="#F39568"/>
<path d="M151.818 44.2432C151.818 44.2432 152.889 44.0648 153.602 43.0836C153.424 42.816 153.246 42.5484 153.156 42.4592C153.067 42.4592 152.621 43.3512 151.818 44.2432Z" fill="#F39568"/>
<path d="M145.128 48.3464C145.128 48.3464 146.466 48.2572 147.269 47.722C147.269 47.722 146.556 48.7032 145.574 48.8816L145.128 48.3464Z" fill="#F39568"/>
<path d="M160.738 80.5476C160.738 80.5476 164.842 79.9232 166.269 78.7636C166.269 78.7636 164.752 82.3316 160.292 82.4208L160.738 80.5476Z" fill="#F39568"/>
<path d="M66.7216 257.966C68.4164 259.215 67.6136 259.483 69.2192 260.375C70.8248 261.267 74.928 264.656 75.1956 264.835C86.078 276.342 104.364 294.271 114.265 295.609C123.631 296.858 137.546 270.722 146.466 251.455C146.556 251.276 150.213 245.924 155.565 247.53C161.095 249.136 181.254 268.135 190.62 272.952C190.62 272.952 178.132 273.576 174.029 278.839C169.926 284.102 158.598 289.097 156.546 289.9C154.494 290.703 153.424 289.811 151.462 291.06C149.588 292.308 146.645 293.914 146.645 293.914C146.556 299.712 148.696 304.796 152.978 309.881C152.978 309.881 154.762 308.9 156.457 308.454C158.776 307.74 163.771 306.402 164.663 304.796C165.555 303.191 196.329 296.679 196.329 296.679C196.329 296.679 219.967 292.041 221.751 280.802C223.624 269.562 175.635 219.254 175.635 219.254L171.888 203.108L154.584 205.963L123.007 208.371C123.007 208.371 117.566 222.911 116.049 236.023C115.068 244.765 109.27 265.638 109.27 265.638C109.27 265.638 103.918 260.107 93.4816 255.736C90.8056 254.577 88.0404 253.328 85.4536 252.168C85.4536 252.168 81.5288 250.206 80.1016 248.244C78.7636 246.37 77.8716 247.084 76.4444 246.638C74.928 246.192 73.6792 244.408 72.698 244.586C71.7168 244.765 71.4492 245.3 71.4492 245.3C68.9516 247.708 67.792 249.225 66.0972 255.112C66.1864 254.755 65.116 256.718 66.7216 257.966Z" fill="#19253D"/>
<path d="M94.998 261.267L94.6412 261.802C95.3548 262.248 96.1576 262.872 96.9604 263.408L97.4064 262.872C96.5144 262.248 95.7116 261.713 94.998 261.267Z" fill="#939597"/>
<path d="M90.6272 258.858L90.2704 259.483C90.984 259.84 91.6976 260.196 92.322 260.553C92.5004 260.642 92.6788 260.732 92.8572 260.821L93.214 260.196C93.0356 260.107 92.8572 260.018 92.6788 259.929C92.0544 259.661 91.3408 259.304 90.6272 258.858Z" fill="#939597"/>
<path d="M86.078 257.074C86.97 257.61 87.7728 258.056 88.5756 258.502L88.9324 257.877C88.1296 257.431 87.2376 256.985 86.4348 256.45L86.078 257.074Z" fill="#939597"/>
<path d="M98.566 264.656C99.2796 265.192 99.9932 265.816 100.796 266.53L101.242 265.994C100.439 265.281 99.7256 264.656 99.012 264.121L98.566 264.656Z" fill="#939597"/>
<path d="M106.416 270.633L105.97 271.168C106.951 271.971 107.575 272.506 108.021 272.774C108.11 272.863 108.2 272.863 108.378 272.952L108.646 272.328C108.556 272.328 108.467 272.238 108.378 272.238C107.932 271.971 107.308 271.436 106.416 270.633Z" fill="#939597"/>
<path d="M110.251 272.238L110.608 272.863C111.322 272.506 112.035 271.703 112.749 270.722L112.214 270.365C111.5 271.257 110.786 271.882 110.251 272.238Z" fill="#939597"/>
<path d="M102.758 267.332L102.312 267.868C102.937 268.403 103.561 268.938 104.096 269.473L104.453 269.83L104.899 269.295L104.542 268.938C104.007 268.492 103.383 267.957 102.758 267.332Z" fill="#939597"/>
<path d="M81.8856 254.488C82.6884 255.023 83.4912 255.558 84.3832 256.004L84.74 255.469C83.9372 254.934 83.0452 254.488 82.2424 253.952L81.8856 254.488Z" fill="#939597"/>
<path d="M70.2896 247.53C70.1112 247.708 69.9328 247.887 69.7544 248.154C70.2896 248.244 71.0032 248.333 71.8952 248.511L72.0736 247.887C71.36 247.708 70.7356 247.619 70.2896 247.53Z" fill="#939597"/>
<path d="M74.036 248.511L73.7684 249.136C74.7496 249.492 75.4632 249.938 75.9984 250.384C76.0876 250.384 76.0876 250.474 76.1768 250.563L76.6228 250.028C76.5336 250.028 76.5336 249.938 76.4444 249.938C75.9092 249.314 75.1064 248.868 74.036 248.511Z" fill="#939597"/>
<path d="M78.1392 251.187L77.7824 251.722C78.496 252.258 79.2988 252.793 80.1908 253.417L80.5476 252.882C79.6556 252.258 78.8528 251.722 78.1392 251.187Z" fill="#939597"/>
<path d="M122.115 230.582L122.739 230.76C123.007 229.868 123.274 228.887 123.453 227.995L122.828 227.817C122.561 228.709 122.293 229.601 122.115 230.582Z" fill="#939597"/>
<path d="M123.364 225.854L123.988 226.033C124.256 225.052 124.523 224.16 124.791 223.268L124.166 223.089C123.899 223.981 123.631 224.873 123.364 225.854Z" fill="#939597"/>
<path d="M119.706 240.126L120.331 240.305C120.509 239.413 120.777 238.432 120.955 237.45L120.42 237.272C120.152 238.253 119.974 239.234 119.706 240.126Z" fill="#939597"/>
<path d="M120.866 235.31L121.49 235.488C121.758 234.596 121.936 233.615 122.204 232.634L121.58 232.455C121.312 233.436 121.044 234.418 120.866 235.31Z" fill="#939597"/>
<path d="M124.702 221.127L125.326 221.305C125.594 220.324 125.861 219.432 126.129 218.54L125.504 218.362C125.237 219.164 124.969 220.146 124.702 221.127Z" fill="#939597"/>
<path d="M113.106 268.581L113.73 268.849C114.176 268.046 114.533 267.154 114.979 266.173L114.354 265.905C113.908 266.976 113.552 267.868 113.106 268.581Z" fill="#939597"/>
<path d="M127.645 211.672L128.27 211.85C128.626 210.869 128.894 209.888 129.251 209.085L128.626 208.817C128.359 209.798 128.002 210.69 127.645 211.672Z" fill="#939597"/>
<path d="M126.129 216.399L126.753 216.578C127.021 215.596 127.378 214.704 127.645 213.812L127.021 213.634C126.753 214.526 126.486 215.418 126.129 216.399Z" fill="#939597"/>
<path d="M114.979 264.121L115.603 264.3C115.871 263.408 116.228 262.516 116.495 261.534L115.871 261.356C115.603 262.337 115.246 263.229 114.979 264.121Z" fill="#939597"/>
<path d="M118.725 244.943L119.35 245.032C119.528 244.14 119.706 243.159 119.885 242.178L119.26 242C119.082 243.07 118.904 244.051 118.725 244.943Z" fill="#939597"/>
<path d="M116.317 259.483L116.941 259.661C117.209 258.769 117.387 257.788 117.566 256.807L116.941 256.718C116.763 257.61 116.584 258.502 116.317 259.483Z" fill="#939597"/>
<path d="M117.298 254.666L117.922 254.755C118.101 253.774 118.19 252.793 118.368 251.901L117.744 251.812C117.655 252.793 117.476 253.685 117.298 254.666Z" fill="#939597"/>
<path d="M118.012 249.849L118.636 249.938C118.725 249.046 118.904 248.154 119.082 247.084L118.458 246.995C118.19 247.976 118.101 248.957 118.012 249.849Z" fill="#939597"/>
<path d="M158.865 244.23C157.884 244.23 156.903 244.319 155.922 244.676L156.1 245.3C156.992 245.032 157.884 244.854 158.865 244.943V244.23Z" fill="#939597"/>
<path d="M163.325 246.281L163.682 245.657C163.414 245.478 163.147 245.389 162.968 245.3C162.344 244.943 161.63 244.765 160.917 244.586L160.738 245.211C161.363 245.389 161.987 245.568 162.612 245.924C162.79 246.014 163.058 246.103 163.325 246.281Z" fill="#939597"/>
<path d="M165.02 289.008L165.288 289.632C166.18 289.186 167.072 288.74 167.874 288.294L167.607 287.67C166.804 288.116 165.912 288.562 165.02 289.008Z" fill="#939597"/>
<path d="M169.391 286.778L169.748 287.402C170.64 286.867 171.532 286.421 172.245 285.975L171.888 285.44C171.175 285.797 170.283 286.243 169.391 286.778Z" fill="#939597"/>
<path d="M173.583 284.28L173.94 284.816C174.921 284.191 175.724 283.656 176.348 283.121L175.902 282.586C175.367 283.121 174.564 283.656 173.583 284.28Z" fill="#939597"/>
<path d="M148.34 297.482C148.964 297.036 149.499 296.679 150.124 296.322L149.767 295.787C149.232 296.055 148.786 296.412 148.25 296.768C148.25 297.036 148.25 297.214 148.34 297.482Z" fill="#939597"/>
<path d="M151.462 294.717L151.818 295.341C152.8 294.806 153.692 294.449 154.405 294.182L154.227 293.557C153.424 293.825 152.443 294.182 151.462 294.717Z" fill="#939597"/>
<path d="M168.856 250.295C169.569 250.83 170.283 251.455 171.086 252.168L171.532 251.633C170.729 250.92 170.015 250.295 169.302 249.76L168.856 250.295Z" fill="#939597"/>
<path d="M156.1 293.022L156.368 293.646C157.17 293.379 158.062 293.022 159.044 292.576L158.776 291.952C157.795 292.398 156.903 292.754 156.1 293.022Z" fill="#939597"/>
<path d="M160.649 291.149L160.917 291.773C161.809 291.416 162.612 290.97 163.593 290.524L163.236 289.9C162.344 290.346 161.452 290.792 160.649 291.149Z" fill="#939597"/>
<path d="M153.513 246.549C153.692 246.37 153.959 246.281 154.227 246.103L153.87 245.478C153.424 245.746 152.978 246.014 152.621 246.281C152.978 246.37 153.246 246.46 153.513 246.549Z" fill="#939597"/>
<path d="M165.377 246.816L165.02 247.352C165.734 247.798 166.447 248.422 167.339 249.046L167.785 248.511C166.804 247.887 166.09 247.262 165.377 246.816Z" fill="#939597"/>
<path d="M194.188 276.52C193.832 276.788 193.118 277.055 191.869 277.412L192.048 278.036C193.386 277.68 194.188 277.323 194.634 277.055C194.724 276.966 194.813 276.966 194.902 276.877L194.456 276.342C194.367 276.342 194.278 276.431 194.188 276.52Z" fill="#939597"/>
<path d="M187.677 266.084L187.231 266.619C188.123 267.332 188.926 267.957 189.55 268.403L189.907 267.868C189.282 267.332 188.569 266.797 187.677 266.084Z" fill="#939597"/>
<path d="M191.691 268.76L191.423 269.384C192.404 269.83 193.118 270.276 193.832 270.811L194.278 270.276C193.475 269.83 192.672 269.295 191.691 268.76Z" fill="#939597"/>
<path d="M195.616 271.971L195.08 272.328C195.348 272.684 195.437 273.13 195.526 273.487C195.616 273.933 195.616 274.379 195.437 274.825L196.062 275.004C196.24 274.468 196.24 273.933 196.151 273.309C196.062 272.863 195.883 272.417 195.616 271.971Z" fill="#939597"/>
<path d="M188.48 278.126C188.034 278.215 187.588 278.304 187.052 278.482L187.231 279.107C187.677 279.018 188.123 278.839 188.658 278.75C189.193 278.661 189.639 278.482 190.085 278.393L189.907 277.769C189.461 277.947 189.015 278.036 188.48 278.126Z" fill="#939597"/>
<path d="M182.325 279.731L182.503 280.356C183.306 280.088 184.198 279.82 185.268 279.553L185.09 278.928C184.109 279.285 183.217 279.464 182.325 279.731Z" fill="#939597"/>
<path d="M177.686 281.515L177.954 282.14C178.668 281.783 179.56 281.426 180.541 281.069L180.273 280.445C179.381 280.802 178.489 281.158 177.686 281.515Z" fill="#939597"/>
<path d="M178.132 257.699C177.597 257.253 177.151 256.807 176.616 256.272L176.17 256.807C176.705 257.253 177.151 257.699 177.686 258.234L178.311 258.769L178.757 258.234L178.132 257.699Z" fill="#939597"/>
<path d="M179.827 260.107C180.541 260.732 181.254 261.445 181.968 262.07L182.414 261.534C181.7 260.91 180.987 260.286 180.273 259.572L179.827 260.107Z" fill="#939597"/>
<path d="M186.16 264.746C185.447 264.21 184.733 263.586 183.93 262.872L183.484 263.408C184.287 264.121 185.001 264.746 185.714 265.281L186.16 264.746Z" fill="#939597"/>
<path d="M175.189 254.934C174.475 254.309 173.762 253.596 173.048 252.971L172.602 253.506C173.316 254.131 174.029 254.755 174.743 255.469L175.189 254.934Z" fill="#939597"/>
<path d="M178.4 218.005C178.4 218.005 146.734 228.352 129.608 223.714C128.359 223.357 117.922 221.216 117.922 221.216C117.922 221.216 123.81 198.916 122.115 184.109C121.669 180.184 120.777 172.424 118.012 165.377C117.03 162.879 116.049 160.292 114.979 157.795C112.035 150.391 109.27 143.701 108.021 140.758C110.608 138.974 112.66 138.528 113.106 138.438C113.195 138.438 113.195 138.438 113.195 138.438C115.96 137.992 119.617 137.19 123.453 136.119C128.359 134.603 133.711 132.462 138.349 129.251L142.631 126.842L147.091 124.345C147.091 124.345 152.621 126.307 158.33 134.514C156.814 136.298 155.297 137.903 153.513 139.33C156.011 140.936 158.152 141.65 158.152 141.65C159.222 141.025 160.292 140.312 161.274 139.42C164.931 146.199 168.231 155.743 169.837 169.391C171.264 181.79 173.94 196.151 175.813 206.052C177.419 213.188 178.4 218.005 178.4 218.005Z" fill="white"/>
<path d="M132.016 141.382C126.129 140.847 124.791 138.082 123.542 136.208C128.448 134.692 133.8 132.551 138.438 129.34L141.204 127.734C142.006 127.734 143.969 129.251 143.969 132.194C143.969 136.208 139.866 142.006 132.016 141.382Z" fill="#19253D"/>
<path opacity="0.2" d="M150.837 149.856L161.095 145.218C161.095 145.218 169.123 157.26 162.612 159.579C155.565 162.166 150.837 149.856 150.837 149.856Z" fill="#19253D"/>
<path d="M139.776 100.082C139.776 100.082 144.058 96.782 142.363 90.2704C142.363 90.2704 140.936 92.768 139.598 93.0356C139.598 93.0356 142.898 84.0264 132.73 78.942C132.73 78.942 133.889 83.9372 132.73 85.5428C132.73 85.5428 130.054 79.7448 126.04 78.5852C126.04 78.5852 126.664 88.6648 120.42 90.7164C115.96 92.1436 110.162 97.3172 108.556 105.88C108.556 105.88 105.97 105.167 104.988 106.148C104.988 106.148 108.289 106.683 108.735 108.824C108.735 108.824 107.308 108.11 106.326 109.002C106.326 109.002 108.646 109.448 109.002 111.322C109.359 113.195 118.279 127.199 123.631 129.518C128.983 131.927 139.776 100.082 139.776 100.082Z" fill="#19253D"/>
<path d="M125.95 131.659L126.664 135.762C126.842 136.833 127.645 137.636 128.626 137.903C137.457 140.222 141.382 134.692 141.828 132.551C140.668 132.105 120.331 123.899 117.03 116.049C117.03 116.138 119.171 126.664 125.95 131.659Z" fill="#F9B587"/>
<path d="M142.363 108.735C143.077 109.716 143.612 110.876 143.969 112.035C144.236 113.016 144.415 114.087 144.415 115.246V122.472C144.415 125.148 142.72 127.556 140.222 128.448C137.279 129.429 133.265 130.321 129.072 129.34C121.223 127.645 117.476 118.101 117.476 118.101C117.476 118.101 114.176 108.2 120.777 101.42C125.326 96.6928 131.481 95.8008 134.781 95.6224C136.208 95.5332 137.546 96.336 138.26 97.5848L140.758 102.134C140.936 102.491 141.114 102.848 141.293 103.204C141.828 104.453 142.096 105.791 142.185 107.218L142.363 108.735Z" fill="#F9B587"/>
<path d="M132.997 104.096C132.997 104.096 126.753 101.42 125.237 106.683L126.218 107.486C126.218 107.486 128.27 103.561 133.265 105.524L132.997 104.096Z" fill="#19253D"/>
<path d="M142.363 108.735C143.077 109.716 143.612 110.876 143.969 112.035C142.72 111.768 140.579 111.946 136.833 113.998C136.833 113.998 138.26 111.5 140.312 110.608C140.847 110.34 141.025 109.627 140.668 109.181L138.082 106.059C138.082 106.059 138.26 105.167 138.974 104.542C139.42 104.186 140.49 103.561 141.293 103.115C141.828 104.364 142.096 105.702 142.185 107.129L142.363 108.735Z" fill="#F39568"/>
<path d="M140.758 102.134C139.241 102.848 138.26 103.74 138.26 103.74L138.617 104.988C139.598 104.186 140.49 103.74 141.293 103.383C141.739 103.204 141.917 102.758 141.739 102.402C141.56 102.134 141.204 101.956 140.758 102.134Z" fill="#19253D"/>
<path d="M142.72 115.068L131.57 118.279C131.57 118.279 135.049 123.631 140.758 121.223C145.218 119.26 142.72 115.068 142.72 115.068Z" fill="white"/>
<path d="M139.598 128.448C139.598 128.448 132.64 130.232 125.415 122.382C125.415 122.382 125.058 126.486 128.983 130.589C132.819 134.692 141.917 132.64 141.917 132.64L139.598 128.448Z" fill="#F39568"/>
<path d="M119.617 115.425C119.617 115.425 116.049 112.392 113.819 115.246C111.589 118.101 116.674 126.307 120.242 122.918C123.988 119.617 119.617 115.425 119.617 115.425Z" fill="#F9B587"/>
<path d="M132.997 108.021C132.997 108.021 131.659 106.326 129.875 107.04C127.378 108.021 127.734 110.34 127.734 110.34C127.734 110.34 128.894 106.059 132.997 108.021Z" fill="#19253D"/>
<path d="M139.152 107.218C139.152 107.218 140.044 104.453 142.096 106.594C142.096 106.594 140.312 105.434 139.152 107.218Z" fill="#19253D"/>
<path d="M118.279 104.275C118.279 104.275 120.955 107.575 118.814 110.965L121.134 116.228L118.814 116.852L116.852 113.908L115.336 106.416C115.246 106.416 117.12 103.026 118.279 104.275Z" fill="#19253D"/>
<path d="M175.546 109.538C175.546 109.538 175.278 110.965 174.654 113.195C172.78 120.509 167.607 136.565 158.33 141.739C158.33 141.739 156.189 141.025 153.692 139.42C149.767 136.922 144.861 132.551 145.307 125.861C145.307 125.861 153.246 112.66 156.635 103.294C156.903 102.402 157.17 101.599 157.438 100.885L172.245 108.021L175.546 109.538Z" fill="white"/>
<path d="M175.546 109.538C175.546 109.538 175.278 110.965 174.654 113.195C171.175 110.519 160.114 104.988 156.635 103.294C156.903 102.402 157.17 101.599 157.438 100.885L172.245 108.021L175.546 109.538Z" fill="#19253D"/>
<path opacity="0.2" d="M175.546 109.448C175.546 109.448 171.353 130.5 161.452 139.42C160.471 137.636 159.49 135.941 158.419 134.514C166.001 125.504 170.64 112.838 172.245 107.843L175.546 109.448Z" fill="#19253D"/>
<path d="M119.617 152.443C119.35 154.227 118.993 155.386 118.993 155.386L118.101 165.466L117.12 175.1L116.852 177.865C115.157 180.273 109.448 180.452 104.096 180.006C98.4768 179.56 93.1248 178.489 93.1248 178.489C93.1248 178.489 93.3032 177.419 93.5708 175.546C94.3736 171.086 96.1576 161.987 99.5472 152.8C101.956 146.288 105.345 142.72 108.2 140.758C110.786 138.974 112.838 138.528 113.284 138.438C113.373 138.438 113.373 138.438 113.373 138.438C120.598 139.241 120.331 147.804 119.617 152.443Z" fill="white"/>
<path d="M117.03 175.1L116.763 177.865C115.068 180.273 109.359 180.452 104.007 180.006C98.3876 179.56 93.0356 178.489 93.0356 178.489C93.0356 178.489 93.214 177.419 93.4816 175.546C95.89 176.17 101.51 176.973 106.505 177.062C112.124 177.24 115.336 175.902 117.03 175.1Z" fill="#19253D"/>
<path d="M139.687 128.626C139.687 128.626 151.283 126.842 158.598 133.443C165.912 139.955 173.226 153.692 168.766 161.987L170.55 173.94C170.55 173.94 182.682 154.94 169.658 136.476C160.917 124.077 149.767 123.81 144.058 124.612C143.434 126.396 142.096 127.734 140.222 128.359L139.687 128.626Z" fill="#19253D"/>
<path d="M111.768 138.974C111.768 138.974 115.068 131.392 121.223 132.284C127.378 133.176 145.931 158.33 142.006 176.794C138.082 195.259 122.115 197.221 122.115 197.221C122.115 197.221 118.993 192.494 122.472 188.123C122.472 188.123 132.997 185.536 135.852 173.494C138.706 161.452 124.345 137.011 119.171 136.298C117.298 136.03 115.871 138.082 115.871 138.082C115.871 138.082 113.552 138.706 111.768 138.974Z" fill="#19253D"/>
<path opacity="0.2" d="M178.4 218.005C178.4 218.005 146.734 228.352 129.608 223.714C128.359 223.357 117.922 221.305 117.922 221.305C117.922 221.305 123.81 199.005 122.115 184.198C121.669 180.273 120.777 172.513 118.012 165.466L116.763 177.954C115.068 180.273 109.359 180.541 104.007 180.095C104.007 180.095 112.66 175.546 113.552 165.198C113.819 162.166 114.354 159.757 115.068 157.884C116.763 153.246 118.993 151.551 118.993 151.551C118.993 151.551 119.171 151.908 119.528 152.532C121.223 155.386 126.04 164.217 126.664 171.353C127.378 180.006 130.054 198.381 143.434 209.263C150.837 215.329 175.635 214.348 175.992 206.409C175.992 206.32 175.992 206.23 175.992 206.141C177.419 213.188 178.4 218.005 178.4 218.005Z" fill="#19253D"/>
<path d="M362.866 352.34C362.866 352.34 368.307 351.359 367.95 344.134C367.593 336.908 365.185 327.007 360.457 324.064C355.64 321.209 352.162 325.312 352.162 325.312L362.866 352.34Z" fill="#939597"/>
<path d="M341.458 324.153C341.636 326.561 343.866 330.04 348.683 332.627C353.5 335.214 356.086 344.312 358.227 348.326C359.208 350.199 360.279 351.18 361.171 351.716C362.241 352.34 362.955 352.34 362.955 352.34C362.955 352.34 362.955 351.716 362.955 350.645C362.955 348.058 362.866 342.796 361.884 337.265C360.546 329.416 355.908 326.65 355.908 326.65C355.016 325.223 353.232 324.153 351.18 323.528C347.791 322.458 343.688 322.458 342.082 323.261C341.636 323.528 341.368 323.796 341.458 324.153Z" fill="#939597"/>
<path d="M360.011 336.016C361.171 340.833 361.706 348.772 361.082 351.716C362.152 352.34 362.866 352.34 362.866 352.34C362.866 352.34 363.222 345.115 361.884 337.265C360.546 329.416 355.908 326.65 355.908 326.65C355.016 325.223 353.232 324.153 351.18 323.528C353.946 326.383 359.119 331.913 360.011 336.016Z" fill="#19253D"/>
<path opacity="0.2" d="M341.458 324.153C341.636 326.561 343.866 330.04 348.683 332.627C353.5 335.214 356.086 344.312 358.227 348.326C359.208 350.199 360.279 351.18 361.171 351.716C362.241 352.34 362.955 352.34 362.955 352.34C362.955 352.34 362.955 351.716 362.955 350.645C362.866 350.556 362.687 350.467 362.598 350.467C360.992 350.021 358.852 349.486 357.514 343.509C356.265 337.533 354.035 333.251 350.378 331.378C346.988 329.683 342.796 324.242 342.082 323.261C341.636 323.528 341.368 323.796 341.458 324.153Z" fill="#19253D"/>
<path d="M302.656 173.583C302.656 173.583 339.763 168.053 349.842 183.752C359.922 199.54 346.364 252.168 335.481 260.196C324.599 268.135 306.402 264.032 299.623 259.037C292.844 253.952 289.722 181.165 302.656 173.583Z" fill="#19253D"/>
<path d="M345.65 239.145C345.65 239.145 350.378 237.986 352.072 232.455L346.453 229.958C346.453 230.047 344.312 235.666 345.65 239.145Z" fill="#939597"/>
<path d="M345.65 229.422C353.321 241.108 370.715 244.14 370.715 244.14C374.283 243.07 379.1 238.075 383.828 232.009C392.837 220.413 401.668 204.892 401.668 204.892L394.442 202.484C394.442 202.484 381.776 216.488 376.335 219.521C370.894 222.554 369.288 225.408 369.288 225.408C368.753 224.784 368.039 224.16 367.326 223.624C363.49 220.413 358.138 217.916 358.138 217.916C351.983 216.221 345.65 229.422 345.65 229.422Z" fill="#F9B587"/>
<path d="M345.65 229.422C353.321 241.108 370.715 244.14 370.715 244.14C374.283 243.07 379.1 238.075 383.828 232.009C383.828 232.009 375.354 241.018 370.002 241.732C364.65 242.446 354.392 235.131 353.41 232.366C352.34 229.601 353.856 222.465 358.138 217.916C351.983 216.221 345.65 229.422 345.65 229.422Z" fill="#F39568"/>
<path d="M271.882 260.107C271.882 260.107 271.436 283.745 274.825 298.731C278.126 313.627 292.308 274.29 292.308 274.29C292.308 274.29 279.553 263.14 271.882 260.107Z" fill="#19253D"/>
<path d="M321.477 274.022C321.477 274.022 321.209 287.938 312.022 297.839C302.923 307.651 298.998 319.247 298.998 319.247C298.998 319.247 312.646 313.003 321.477 314.698C321.477 314.698 326.115 314.965 327.81 313.003C329.505 311.04 329.951 308.81 332.627 309.524C335.303 310.238 338.96 309.435 339.941 309.256C340.922 309.167 346.988 318.89 345.828 325.223C345.828 325.223 341.012 326.561 340.387 327.364C339.763 328.167 336.284 331.824 334.143 331.735C332.002 331.646 326.204 334.946 326.204 334.946C326.204 334.946 296.501 346.274 293.736 348.148C289.186 351.359 267.511 354.838 265.638 342.706C263.675 330.575 282.586 272.863 285.262 266.619C287.848 260.375 318.266 266.44 321.477 274.022Z" fill="#19253D"/>
<path d="M294.449 313.984L295.252 314.252C295.52 313.449 295.966 312.557 296.322 311.576L295.52 311.219C295.074 312.2 294.717 313.181 294.449 313.984Z" fill="#939597"/>
<path d="M338.336 312.824L338.514 313.716C339.406 313.538 340.387 313.36 341.368 313.181L341.19 312.289C340.209 312.378 339.228 312.646 338.336 312.824Z" fill="#939597"/>
<path d="M294.182 320.852L293.29 320.942V321.031C293.468 322.28 293.825 323.172 294.449 323.796L295.074 323.172C294.628 322.726 294.36 322.012 294.182 320.852Z" fill="#939597"/>
<path d="M301.228 323.528L301.496 324.42C302.388 324.153 303.369 323.885 304.261 323.528L303.994 322.636C303.102 322.904 302.12 323.261 301.228 323.528Z" fill="#939597"/>
<path d="M300.515 302.745C299.98 303.548 299.444 304.44 298.909 305.153L299.623 305.599C300.069 304.796 300.604 303.994 301.228 303.191L300.515 302.745Z" fill="#939597"/>
<path d="M298.642 307.383L297.839 306.937C297.304 307.829 296.858 308.632 296.412 309.524L297.214 309.97C297.66 309.078 298.106 308.275 298.642 307.383Z" fill="#939597"/>
<path d="M317.106 273.041L316.214 272.863C316.036 273.844 315.857 274.736 315.679 275.717L316.571 275.896C316.749 275.004 317.017 274.022 317.106 273.041Z" fill="#939597"/>
<path d="M304.083 299.266L303.369 298.731C302.745 299.623 302.21 300.336 301.674 301.139L302.388 301.674C302.923 300.872 303.458 300.069 304.083 299.266Z" fill="#939597"/>
<path d="M306.224 294.717C305.688 295.52 305.064 296.233 304.529 297.036L305.242 297.571C305.778 296.768 306.402 295.966 306.937 295.252L306.224 294.717Z" fill="#939597"/>
<path d="M294.628 316.214L293.736 315.946C293.468 317.017 293.29 317.998 293.2 318.89L294.092 318.979C294.271 318.087 294.36 317.195 294.628 316.214Z" fill="#939597"/>
<path d="M296.59 324.064L296.412 324.956C296.768 325.045 297.125 325.045 297.482 325.045C298.017 325.045 298.731 324.956 299.444 324.866L299.266 323.974C298.196 324.153 297.304 324.242 296.59 324.064Z" fill="#939597"/>
<path d="M320.496 320.228L320.674 321.12C321.655 320.942 322.636 320.763 323.528 320.496L323.261 319.604C322.369 319.871 321.388 320.05 320.496 320.228Z" fill="#939597"/>
<path d="M325.134 318.979L325.402 319.782C326.383 319.425 327.275 319.068 328.167 318.622L327.81 317.82C327.007 318.266 326.115 318.712 325.134 318.979Z" fill="#939597"/>
<path d="M305.867 322.012L306.134 322.904C307.205 322.547 308.097 322.28 308.9 322.101L308.721 321.209C307.918 321.388 307.026 321.655 305.867 322.012Z" fill="#939597"/>
<path d="M315.679 320.585V321.477C316.66 321.477 317.641 321.388 318.622 321.298L318.533 320.406C317.552 320.585 316.571 320.585 315.679 320.585Z" fill="#939597"/>
<path d="M333.608 314.162L333.965 314.965C334.768 314.698 335.66 314.341 336.641 314.073L336.373 313.181C335.303 313.538 334.411 313.895 333.608 314.162Z" fill="#939597"/>
<path d="M330.754 315.857C330.397 316.214 329.951 316.571 329.416 317.017L329.951 317.73C330.575 317.284 331.021 316.928 331.467 316.482C331.646 316.303 331.913 316.125 332.181 315.857L331.735 315.144C331.289 315.322 331.021 315.59 330.754 315.857Z" fill="#939597"/>
<path d="M315.233 277.68C314.965 278.572 314.698 279.553 314.43 280.445L315.233 280.712C315.5 279.82 315.857 278.839 316.125 277.947L315.233 277.68Z" fill="#939597"/>
<path d="M307.383 293.111L308.097 293.646C308.721 292.844 309.256 292.041 309.792 291.327L309.078 290.792C308.543 291.506 308.008 292.308 307.383 293.111Z" fill="#939597"/>
<path d="M312.468 287.135L311.665 286.689C311.219 287.581 310.684 288.384 310.238 289.186L310.951 289.632C311.486 288.83 312.022 287.938 312.468 287.135Z" fill="#939597"/>
<path d="M312.557 284.905L313.36 285.262C313.806 284.37 314.162 283.478 314.519 282.586L313.716 282.229C313.36 283.21 313.003 284.102 312.557 284.905Z" fill="#939597"/>
<path d="M310.684 320.763L310.862 321.655C311.932 321.477 312.824 321.388 313.627 321.477L313.716 320.585C312.735 320.496 311.843 320.585 310.684 320.763Z" fill="#939597"/>
<path d="M270.811 101.866L274.468 117.298V117.387C274.468 117.387 274.736 120.242 275.45 123.988C276.342 128.18 277.858 133.532 280.534 137.368C280.98 137.992 281.337 138.528 281.783 138.974C281.783 138.974 284.102 147.804 286.51 155.386C287.938 159.846 289.454 163.95 290.614 165.555C290.614 165.555 305.242 162.79 301.764 154.048C301.764 154.048 296.768 142.631 292.844 134.246C292.041 132.64 291.327 131.124 290.703 129.786L286.243 119.528L284.102 114.622L277.59 99.7256L270.811 101.866Z" fill="#F9B587"/>
<path d="M286.6 155.476C288.027 159.936 289.543 164.039 290.703 165.644C290.703 165.644 305.332 162.879 301.853 154.138C301.853 154.138 296.858 142.72 292.933 134.335C293.022 134.692 296.501 146.734 295.43 150.034C294.36 153.513 291.327 156.724 286.6 155.476Z" fill="#F39568"/>
<path d="M286.689 166.269C286.867 172.602 289.543 180.184 292.576 184.733C294.449 186.696 296.679 186.696 298.998 185.625C304.975 183.038 311.219 174.029 311.219 174.029L302.656 155.922L301.853 154.138C297.036 155.476 292.13 158.865 289.276 161.184C287.759 162.433 286.778 163.236 286.778 163.236C286.689 164.217 286.6 165.198 286.689 166.269Z" fill="white"/>
<path opacity="0.2" d="M286.689 166.269C286.867 172.602 289.543 180.184 292.576 184.733C294.449 186.696 296.679 186.696 298.998 185.625C293.825 180.541 290.346 166.269 289.186 161.184C287.67 162.433 286.689 163.236 286.689 163.236C286.689 164.217 286.6 165.198 286.689 166.269Z" fill="#19253D"/>
<path d="M286.689 166.269C290.703 162.255 299.89 157.438 302.745 155.922L301.942 154.138C294.449 156.189 286.867 163.236 286.867 163.236C286.689 164.217 286.6 165.198 286.689 166.269Z" fill="#19253D"/>
<path d="M267.154 263.14C278.304 277.59 324.956 278.482 324.956 278.482C324.956 278.482 323.261 259.394 324.956 249.849C326.74 239.413 328.345 224.16 328.345 224.16C332.627 227.282 339.138 233.08 342.796 236.469C344.49 238.075 345.65 239.056 345.65 239.056C346.81 233.704 348.415 229.601 350.11 226.568C353.946 219.61 358.138 217.826 358.138 217.826L356.176 215.24L341.993 196.775L326.829 184.198L324.242 182.057L312.289 174.386L307.383 171.264C307.383 171.264 294.717 176.527 291.149 182.057C287.581 187.588 279.285 213.099 276.698 225.587C273.398 241.821 269.473 255.558 267.868 260.821C267.422 262.426 267.154 263.14 267.154 263.14Z" fill="white"/>
<path opacity="0.2" d="M267.154 263.14C278.304 277.59 324.956 278.482 324.956 278.482C324.956 278.482 323.261 259.394 324.956 249.849C326.74 239.413 328.345 224.16 328.345 224.16C332.627 227.282 339.138 233.08 342.796 236.469C344.49 238.075 345.65 239.056 345.65 239.056C346.81 233.704 348.415 229.601 350.11 226.568C350.11 226.568 333.786 217.737 326.74 209.977C326.74 209.977 317.998 234.061 315.054 246.192C311.219 261.891 298.017 268.314 285.975 267.511C273.933 266.708 267.868 260.821 267.868 260.821C267.422 262.426 267.154 263.14 267.154 263.14Z" fill="#19253D"/>
<path d="M319.425 187.142C322.19 186.606 323.618 185.09 325.669 183.395L324.242 182.236L311.486 172.067C309.792 173.137 307.651 174.208 307.383 178.489C306.937 184.912 313.806 188.212 319.425 187.142Z" fill="#19253D"/>
<path d="M342.885 236.558C344.58 238.164 345.739 239.145 345.739 239.145C349.575 221.573 358.227 217.916 358.227 217.916L356.265 215.329C352.608 217.916 345.204 224.516 342.885 236.558Z" fill="#19253D"/>
<path d="M333.786 167.339C333.786 167.339 334.054 174.297 326.026 175.724C326.026 175.724 328.078 166.536 333.786 167.339Z" fill="#19253D"/>
<path d="M320.674 152.354C325.491 160.114 333.34 166.715 333.34 166.715C333.34 166.715 350.11 158.598 344.58 145.396C343.063 141.828 341.279 139.241 339.317 137.368C330.932 129.34 319.782 134.514 319.782 134.514C314.965 139.598 316.928 146.377 320.674 152.354Z" fill="white"/>
<path opacity="0.2" d="M320.674 152.354C325.491 160.114 333.34 166.715 333.34 166.715C333.34 166.715 350.11 158.598 344.58 145.396C343.063 141.828 341.279 139.241 339.317 137.368C339.406 137.546 344.044 144.95 339.317 149.856C334.589 154.762 326.294 156.546 320.674 152.354Z" fill="#19253D"/>
<path d="M333.251 148.875C333.251 148.875 328.88 126.218 314.876 127.288C301.764 128.27 312.022 145.574 312.022 145.574C312.022 145.574 330.932 150.926 333.251 148.875Z" fill="#19253D"/>
<path d="M315.946 140.847C315.946 140.847 309.97 142.006 310.505 147.537C310.505 147.537 315.59 144.504 315.946 140.847Z" fill="#19253D"/>
<path d="M326.472 174.297L324.242 182.146C323.974 183.217 323.172 184.02 322.101 184.287C312.914 186.339 308.543 179.56 309.435 177.24C310.594 176.794 331.11 170.283 334.768 162.433C334.857 162.433 333.519 169.391 326.472 174.297Z" fill="#F9B587"/>
<path d="M310.505 173.941C313.449 175.1 317.552 176.082 321.923 175.368C330.04 173.941 334.322 164.307 334.322 164.307C334.322 164.307 335.66 157.796 333.876 151.73C333.34 150.124 332.627 148.519 331.556 147.092C327.721 141.918 321.388 141.026 317.909 140.669C316.125 140.491 314.519 141.294 313.538 142.81L312.022 145.308L311.04 147.002C310.862 147.359 310.594 147.716 310.416 148.073C309.792 149.322 309.435 150.749 309.346 152.087L309.256 153.692C308.454 154.674 307.829 155.833 307.472 157.082C307.116 158.152 306.937 159.223 306.848 160.293L306.491 167.697C306.313 170.462 308.008 172.96 310.505 173.941Z" fill="#F9B587"/>
<path d="M318.979 149.41C318.979 149.41 325.491 146.912 326.918 152.354L325.937 153.156C325.937 153.156 323.974 148.964 318.801 150.837L318.979 149.41Z" fill="#19253D"/>
<path d="M309.167 153.781C308.364 154.762 307.74 155.922 307.383 157.17C308.632 156.903 310.862 157.17 314.608 159.49C314.608 159.49 313.27 156.814 311.13 155.832C310.594 155.565 310.416 154.851 310.862 154.405L313.627 151.283C313.627 151.283 313.538 150.391 312.735 149.678C312.289 149.232 311.219 148.607 310.416 148.161C309.792 149.41 309.435 150.837 309.346 152.175L309.167 153.781Z" fill="#F39568"/>
<path d="M311.04 147.091C312.557 147.894 313.538 148.875 313.538 148.875L313.181 150.124C312.289 149.232 311.308 148.696 310.505 148.429C310.059 148.25 309.881 147.804 310.059 147.448C310.238 147.002 310.684 146.823 311.04 147.091Z" fill="#19253D"/>
<path d="M308.543 160.203L319.871 163.95C319.871 163.95 316.036 169.302 310.416 166.626C305.867 164.485 308.543 160.203 308.543 160.203Z" fill="white"/>
<path d="M311.219 174.029C311.219 174.029 318.266 176.17 326.026 168.32C326.026 168.32 326.204 172.513 322.101 176.616C319.068 179.56 313.449 179.114 310.505 178.578C309.613 178.4 309.167 177.508 309.613 176.705L311.219 174.029Z" fill="#F39568"/>
<path d="M332.181 161.541C332.181 161.541 335.927 158.508 338.157 161.63C340.387 164.663 334.857 172.87 331.2 169.302C327.632 165.644 332.181 161.541 332.181 161.541Z" fill="#F9B587"/>
<path d="M318.801 153.424C318.801 153.424 320.317 151.729 322.012 152.532C324.51 153.602 324.064 156.011 324.064 156.011C324.064 156.011 323.082 151.551 318.801 153.424Z" fill="#19253D"/>
<path d="M312.557 152.264C312.557 152.264 311.754 149.41 309.613 151.462C309.524 151.551 311.397 150.48 312.557 152.264Z" fill="#19253D"/>
<path d="M311.932 145.218C311.932 145.307 311.754 145.574 311.754 145.664C311.754 145.664 315.411 142.631 321.834 145.128C328.256 147.626 331.378 153.692 331.378 153.692L333.786 151.64C333.251 150.034 332.538 148.429 331.467 147.002C327.632 141.828 321.298 140.936 317.82 140.579C316.036 140.401 314.43 141.204 313.449 142.72L311.932 145.218Z" fill="#F39568"/>
<path d="M330.218 161.987L332.359 162.968L335.481 160.203C335.927 157.527 333.786 150.48 333.34 148.875C333.073 148.607 332.627 148.34 332.27 148.072C332.27 148.072 330.129 155.386 332.448 158.152L330.218 161.987Z" fill="#19253D"/>
<path d="M274.379 117.298V117.387C274.379 117.387 274.647 120.242 275.36 123.988L286.243 119.528L284.102 114.622L274.379 117.298Z" fill="#F39568"/>
<path opacity="0.2" d="M290.346 191.78L298.909 199.451C298.909 199.451 295.876 211.493 289.276 208.817C281.337 205.606 290.346 191.78 290.346 191.78Z" fill="#19253D"/>
<path d="M262.92 125.503L301.192 111.213L291.737 85.8932L253.466 100.184L262.92 125.503Z" fill="#19253D"/>
<path d="M253.417 100.082L262.872 125.415L301.228 111.143L299.712 110.786L254.488 97.9416L253.774 99.3688L253.417 100.082Z" fill="#19253D"/>
<path d="M253.774 99.3688L262.783 123.631C263.318 123.453 263.051 123.542 263.943 123.185L277.68 103.74L254.488 97.8524L253.774 99.3688Z" fill="white"/>
<path d="M263.988 123.308L300.589 109.641L291.134 84.322L254.534 97.9886L263.988 123.308Z" fill="#19253D"/>
<path d="M140.98 72.7652L174.356 49.2069L158.771 27.1264L125.395 50.6847L140.98 72.7652Z" fill="#19253D"/>
<path d="M125.322 50.599L140.912 72.6922L174.374 49.1304L172.817 49.1712L125.813 48.2563L125.486 49.8181L125.322 50.599Z" fill="#19253D"/>
<path d="M125.486 49.8181L140.372 70.9896C140.844 70.6809 140.608 70.8353 141.38 70.2632L149.717 47.9624L125.79 48.1701L125.486 49.8181Z" fill="white"/>
<path d="M141.455 70.3705L173.373 47.8409L157.788 25.7604L125.869 48.29L141.455 70.3705Z" fill="#19253D"/>
<path d="M266.886 91.1624C267.332 90.6272 268.135 90.2704 268.67 90.2704C268.76 89.7352 269.384 89.3784 270.008 89.2892C270.365 89.2 270.811 89.2892 271.168 89.4676C271.436 88.8432 272.238 88.5756 272.684 88.754C272.684 88.754 272.774 88.754 272.952 88.8432C273.13 88.3972 273.398 88.2188 273.398 88.2188C273.844 87.5944 275.004 87.3268 275.539 87.5944C275.539 87.5944 279.553 89.2 279.999 92.322C280.356 95.444 280.98 99.1012 279.553 98.566C279.107 98.3876 278.75 97.9416 278.393 97.228C278.572 99.1012 278.482 100.528 277.501 100.172C276.966 99.9932 276.431 99.1904 276.074 98.2092C276.163 99.8148 275.985 100.885 275.182 100.618C274.379 100.35 273.666 98.8336 273.22 97.228C273.398 99.012 273.22 100.35 272.328 100.082C271.168 99.7256 270.9 97.1388 270.098 95.0872C269.206 92.6788 268.938 93.9276 267.6 93.0356L266.351 93.4816C265.994 92.1436 266.797 91.2516 266.886 91.1624Z" fill="#F9B587"/>
<path d="M148.964 39.694C147.715 41.032 146.645 40.6752 145.842 41.032C145.574 41.1212 144.415 43.5296 144.058 43.262C144.058 39.1381 144.504 45.6704 143.166 45.046C142.452 44.6892 139.332 45.5126 139.6 44.4422C137.905 43.9962 134.605 41.231 134.694 38.7334C134.783 35.9682 137.727 35.879 137.727 35.879C137.816 32.757 140.849 33.2922 140.849 33.2922C141.027 31.9542 143.525 31.419 143.525 31.419C143.792 30.2594 145.398 30.081 146.379 30.6162C147.36 31.0622 150.926 36.7504 151.194 37.91C151.462 39.0696 148.964 39.694 148.964 39.694Z" fill="#F9B587"/>
<path d="M144.06 43.015C144.417 44.6206 143.079 44.799 143.079 44.799C143.346 44.6206 143.346 43.907 143.257 43.3718C143.257 43.3718 143.257 43.015 143.079 42.4798C142.9 41.9446 142.633 41.3202 142.008 41.0526C140.849 40.5174 140.313 40.8742 140.313 40.8742L137.994 37.5738C139.154 38.3766 140.759 40.1606 140.759 40.1606C142.9 40.1606 143.614 41.677 143.881 42.569C144.327 42.569 144.773 42.3906 144.952 41.7662C145.309 40.6066 144.595 39.5362 144.595 39.5362L141.384 35.0762C141.384 35.0762 145.755 39.3578 145.844 40.9634C146.022 43.015 144.06 43.015 144.06 43.015Z" fill="#F39568"/>
<path d="M148.52 38.4658C148.52 38.4658 149.233 39.1794 150.125 38.9118C151.017 38.6442 151.196 38.109 151.017 37.5738C151.017 37.5738 151.553 38.109 151.017 38.8226C150.393 39.8038 148.966 39.5362 148.52 39.447V38.4658Z" fill="#F39568"/>
<path d="M144.773 33.7382C144.773 33.7382 147.628 37.3062 147.985 38.2874C148.341 39.3578 147.717 40.339 146.914 40.5174C146.111 40.6958 145.755 40.339 145.755 40.339V41.4094C145.755 41.4094 148.698 41.9446 148.698 39.0902C148.698 37.663 144.773 33.7382 144.773 33.7382Z" fill="#F39568"/>
<path d="M392.391 206.498C390.696 205.428 389.447 203.733 388.912 201.86C388.734 201.324 388.555 200.7 388.377 200.165C387.574 197.935 388.198 193.118 388.377 191.156C388.555 189.193 389.893 185.536 390.339 185.179C390.696 184.822 393.104 186.517 392.212 188.926C391.231 191.423 391.945 194.099 392.48 194.902C393.015 195.705 395.245 194.278 395.78 192.85C396.316 191.423 401.222 180.541 402.203 180.184C403.184 179.827 403.987 180.095 403.362 182.949C402.738 185.714 399.705 190.62 400.062 192.048C400.419 193.386 401.222 192.315 401.4 191.602C401.668 190.888 405.592 180.541 406.217 180.184C406.841 179.827 408.714 179.203 407.733 183.574C406.752 187.944 403.808 193.296 403.987 194.188C404.165 195.17 408.268 184.555 409.428 183.93C410.588 183.306 411.39 184.376 410.498 187.052C409.606 189.728 407.198 194.813 407.02 195.437C406.841 195.883 406.93 196.329 407.376 196.062C407.822 195.794 410.32 189.55 410.944 189.193C411.569 188.836 412.996 189.461 411.39 193.742C409.785 198.024 408.804 201.77 404.522 205.695C401.935 208.104 400.597 209.62 398.189 209.263C396.494 208.996 394.264 207.658 392.391 206.498Z" fill="#F9B587"/>
<path d="M339.317 194.545C339.317 194.545 340.387 182.949 331.289 180.63C324.777 178.935 313.806 190.888 310.951 204.357C306.045 228.174 317.463 248.868 324.956 251.633C324.956 251.633 331.824 246.37 326.561 239.234C326.561 239.234 312.468 225.052 318.801 204.625C324.064 187.588 332.359 183.217 335.481 191.602L339.317 194.545Z" fill="#19253D"/>
<path d="M281.337 208.014L285.262 196.062C285.262 196.062 284.726 175.189 306.759 169.926C306.491 169.212 306.402 168.499 306.491 167.696L306.67 164.485C303.815 164.752 275.717 172.87 281.337 208.014Z" fill="#19253D"/>
<path d="M369.288 232.455C368.842 228.709 369.288 225.498 369.288 225.498C368.753 224.873 368.039 224.249 367.326 223.714C366.434 231.028 369.288 232.455 369.288 232.455Z" fill="#F39568"/>
<path d="M280.534 137.457C280.98 138.082 281.337 138.617 281.783 139.063C281.783 139.063 285.529 136.922 286.6 136.298C286.6 136.298 283.121 136.387 280.534 137.457Z" fill="#F39568"/>
<path d="M339.852 309.792C341.814 311.665 343.42 316.036 344.49 319.604C345.382 322.458 345.828 324.866 345.828 324.866C347.612 326.829 351.626 326.204 358.138 326.918C363.936 327.542 368.039 331.646 372.41 333.34C372.856 333.519 373.391 333.697 373.837 333.786C376.424 334.5 378.208 334.054 379.278 332.805C380.17 331.646 380.438 329.862 379.903 327.542C378.832 322.726 366.701 312.111 363.222 310.773C359.744 309.346 357.603 308.543 353.41 305.153C349.307 301.764 345.026 301.496 344.223 302.745C344.044 302.923 343.866 303.28 343.598 303.726C342.35 305.867 339.852 309.792 339.852 309.792Z" fill="#939597"/>
<path d="M343.598 303.815C344.936 303.637 347.256 303.637 348.95 304.529C351.448 305.956 354.927 309.346 358.762 311.13C362.509 312.914 369.734 317.82 373.48 321.388C377.227 324.956 379.457 330.486 378.386 332.27C377.316 334.054 375.264 334.054 372.499 333.43C372.945 333.608 373.48 333.786 373.926 333.876C378.832 335.124 381.062 332.448 379.903 327.632C378.832 322.815 366.701 312.2 363.222 310.862C359.744 309.435 357.603 308.632 353.41 305.242C349.307 301.853 345.026 301.585 344.223 302.834C344.044 303.012 343.866 303.369 343.598 303.815Z" fill="#19253D"/>
<path opacity="0.2" d="M344.58 319.604C345.472 322.458 345.918 324.866 345.918 324.866C347.702 326.829 351.716 326.204 358.227 326.918C364.025 327.542 368.128 331.646 372.499 333.34C372.945 333.519 373.48 333.697 373.926 333.786C376.513 334.5 378.297 334.054 379.368 332.805L379.724 330.932C379.724 330.932 375.354 333.073 370.448 330.218C366.612 327.988 364.917 325.848 361.884 325.045C362.42 322.726 361.171 320.228 361.171 320.228C360.903 322.815 360.19 324.599 360.19 324.599C359.565 324.51 358.941 324.51 358.227 324.51C353.232 324.777 345.472 322.369 344.58 319.604Z" fill="#19253D"/>
</svg>
