<svg width="170" height="170" viewBox="0 0 170 170" fill="none" xmlns="http://www.w3.org/2000/svg">
<path d="M85 170C38.1348 170 0 131.872 0 85C0 38.1348 38.1348 0 85 0C131.872 0 170 38.1348 170 85C170 131.872 131.872 170 85 170ZM85 13.168C45.3903 13.168 13.168 45.3903 13.168 85C13.168 124.61 45.3903 156.832 85 156.832C124.61 156.832 156.832 124.603 156.832 85C156.832 45.3903 124.61 13.168 85 13.168Z" fill="white"/>
<path d="M85 160C126.421 160 160 126.421 160 85C160 43.5786 126.421 10 85 10C43.5786 10 10 43.5786 10 85C10 126.421 43.5786 160 85 160Z" fill="#19253D"/>
<path d="M122.595 103.304C120.027 105.858 115.879 105.858 113.311 103.304L85.0657 75.058L56.8202 103.304C54.0613 105.667 49.9003 105.345 47.5366 102.586C45.4232 100.124 45.4232 96.4826 47.5366 94.0203L80.4568 61.1001C83.0247 58.5454 87.1725 58.5454 89.7404 61.1001L122.661 94.0203C125.196 96.6078 125.169 100.756 122.595 103.304Z" fill="white"/>
</svg>
